<?xml version="1.0" encoding="utf-8"?>
<!-- Generator: Adobe Illustrator 24.3.0, SVG Export Plug-In . SVG Version: 6.00 Build 0)  -->
<svg version="1.1"
	 id="svg10" inkscape:export-filename="C:\Users\rjh\Downloads\Rahsh International Corportation\new.rstr8tn\Signature Edites\r-signature.png" inkscape:export-xdpi="96" inkscape:export-ydpi="96" inkscape:version="1.0.1 (3bc2e813f5, 2020-09-07)" sodipodi:docname="r-signature.svg" xmlns:cc="http://creativecommons.org/ns#" xmlns:dc="http://purl.org/dc/elements/1.1/" xmlns:inkscape="http://www.inkscape.org/namespaces/inkscape" xmlns:rdf="http://www.w3.org/1999/02/22-rdf-syntax-ns#" xmlns:sodipodi="http://sodipodi.sourceforge.net/DTD/sodipodi-0.dtd" xmlns:svg="http://www.w3.org/2000/svg"
	 xmlns="http://www.w3.org/2000/svg" xmlns:xlink="http://www.w3.org/1999/xlink" x="0px" y="0px" viewBox="0 0 1896 1400"
	 style="enable-background:new 0 0 1896 1400;" xml:space="preserve">
<sodipodi:namedview  bordercolor="#666666" borderopacity="1" gridtolerance="10" guidetolerance="10" id="namedview12" inkscape:current-layer="g18" inkscape:cx="948" inkscape:cy="700" inkscape:pageopacity="0" inkscape:pageshadow="2" inkscape:window-height="801" inkscape:window-maximized="1" inkscape:window-width="1536" inkscape:window-x="-8" inkscape:window-y="-8" inkscape:zoom="0.37658228" objecttolerance="10" pagecolor="#ffffff" showgrid="false">
	</sodipodi:namedview>
<g id="g18" inkscape:groupmode="layer" inkscape:label="Image">
	<path id="path22" d="M891.2,1338.9c-0.7-0.3-1.5-0.9-1.7-1.4c-0.3-0.5-0.8-0.9-1.3-0.9c-0.4,0-2.5-1.7-4.6-3.8s-4.1-3.9-4.5-4.1
		c-0.4-0.2-1.1-1-1.5-1.8c-0.4-0.8-1-1.4-1.3-1.4s-0.6-0.3-0.7-0.8c-0.2-0.9-5.1-5.7-5.6-5.4c-0.2,0.1-0.4-0.3-0.4-0.8s-0.3-1-0.7-1
		c-0.4,0-1-0.7-1.3-1.5c-0.3-0.8-0.8-1.3-1-1c-0.2,0.3-0.6-0.4-0.7-1.5c-0.2-1.1-0.8-2-1.3-2c-1.3,0-5-2.3-5-3.1
		c0-0.4-0.6-0.9-1.3-1.3s-1.3-1.1-1.3-1.6c0-0.5-0.3-1-0.8-1s-0.8-0.4-0.8-1s-0.3-1-0.8-1c-0.4,0-0.8-0.4-0.8-0.9
		c0-0.7-1.9-2.9-8.6-9.6c-0.5-0.5-1-1.3-1-1.8s-0.3-0.8-0.6-0.8c-0.8,0-6-5-6.7-6.4c-0.3-0.6-1.7-2.3-3.2-3.6
		c-1.4-1.4-2.7-3.2-2.9-4c-0.3-1.4-9.7-8.1-11.2-8c-0.4,0-0.6-0.6-0.4-1.4c0.3-1.5-2.9-4.6-4.7-4.6c-0.6,0-1.1-0.8-1.3-1.9
		c-0.2-1.3-0.9-2.1-2.2-2.6c-1.1-0.4-2.1-1.1-2.2-1.6c-0.2-0.5-0.5-0.7-0.7-0.4c-0.2,0.3-0.9-0.6-1.6-2c-0.6-1.4-1.5-2.5-2-2.5
		c-0.4,0-1.4-1-2.1-2.2s-2.1-3.1-3.1-4.2c-1-1-1.9-2.3-1.9-2.7s-0.7-1.1-1.6-1.5c-2-0.9-19.8-17.5-21.7-20.4
		c-0.3-0.4-1.5-1.3-2.6-1.9c-1.2-0.7-2.4-1.8-2.8-2.4c-1.2-2.1-2.8-3.7-3.9-3.7c-0.6,0-1-0.4-1-0.8c0-0.4-1.4-2.4-3.1-4.5
		c-1.7-2-3.6-4.6-4.3-5.7c-1.3-2.5-3.1-3.9-6.4-5.1c-1.4-0.5-2.6-1.3-2.8-1.8c-0.4-1.2-8.5-9.1-9.3-9.1c-0.4,0-0.8-0.4-0.8-0.9
		c-0.2-0.8-6.1-6.2-8.3-7.6c-0.6-0.4-1.1-1-1.1-1.5s-0.8-1.1-1.9-1.5c-1-0.4-2.5-1.6-3.2-2.6c-0.7-1-2.4-2.8-3.8-4
		c-1.3-1.1-2.6-2.4-2.7-2.8c-0.6-1.7-9.6-8.8-10.7-8.3c-0.2,0.1-0.4-0.2-0.4-0.7s-1.5-2.1-3.3-3.7s-3.3-3.1-3.3-3.5
		c0-0.4-0.9-1.3-2-2c-1.1-0.7-2-1.9-2-2.5c0-1.3-4.7-4.4-7.6-5c-0.4-0.1-1.1-0.5-1.4-0.9c-0.6-0.8-1.6-1.3-5.3-2.8
		c-1.4-0.6-2.8-1.5-3.2-2.1c-0.4-0.6-1-1.2-1.5-1.3c-0.4-0.1-0.9-0.7-1.1-1.3c-0.2-0.6-0.8-1.2-1.4-1.4c-0.6-0.2-1.4-0.9-1.7-1.5
		c-0.3-0.7-0.9-1.2-1.3-1.2c-0.4,0-1.2-0.6-1.8-1.2c-0.6-0.7-2.1-1.8-3.4-2.4c-3.5-1.9-8.2-5.4-9-6.8c-0.4-0.7-1.5-1.8-2.5-2.5
		c-1-0.7-3.1-2.5-4.8-4.1c-6.9-6.4-8.8-8-9.6-8c-0.5,0-1.2-0.7-1.6-1.5s-1.2-1.5-1.7-1.5c-0.5,0-1-0.4-1-1s-0.6-1-1.3-1
		s-1.7-0.4-2.1-0.9c-2.3-2.5-8-6.7-14.8-11c-1.6-1-3.1-2.2-3.5-2.7c-0.4-0.5-0.8-0.9-0.9-1c-0.1-0.1-1-0.5-1.9-0.9s-1.9-1.4-2.2-2.1
		s-0.9-1.4-1.2-1.4c-0.4,0-1.3-0.6-2.1-1.4s-2.4-2.1-3.7-2.9c-4.3-2.9-5.8-4-8.8-6.8c-1.7-1.5-3.9-2.9-5-3.1c-1.7-0.2-3.9-2-4.8-3.8
		c-0.1-0.3-0.8-0.7-1.5-0.9c-0.7-0.2-1.7-1-2.4-1.8c-0.6-0.8-1.4-1.6-1.8-1.8c-0.4-0.1-1.3-0.8-2.1-1.4c-0.8-0.6-1.6-1.2-1.9-1.2
		c-0.8,0-4.5-3.4-4.5-4.2c0-0.4-0.5-0.8-1.2-0.8c-0.6,0-2.1-0.8-3.1-1.9c-1.8-1.7-6-4.1-8.2-4.6c-2.1-0.5-4.1-1.9-4.9-3.4
		c-0.5-0.9-1.3-1.8-1.7-2c-11-6.1-19-10.1-28.6-14.2c-7.7-3.3-13.5-6.4-16.6-8.8c-2.6-2.1-8.1-5.7-12.1-8c-4-2.3-9-5.5-11.1-7
		c-2.1-1.6-4.5-3-5.5-3.2c-1.5-0.3-1.8,0-2.1,2.2c-0.2,1.4-0.4,71.6-0.4,156c-0.1,148.6-0.1,153.6-1,157.7
		c-1.6,6.9-4.8,13.1-7.7,14.8c-1.4,0.8-3.9,2.9-5.6,4.7c-3.6,3.8-6.7,4.3-8.3,1.4c-1.5-2.7-1.3-3.6,0.6-3.6c0.9,0,2.2-0.8,2.8-1.8
		c1.1-1.7,1.1-1.9,0.2-3.2c-0.7-1.2-3-1.5-12-1.5c-12.1-0.1-16.4-1.1-19.7-5c-2-2.3-4.7-7.6-6.2-12.2c-0.5-1.5-1.6-2.5-3.3-3.2
		c-1.4-0.5-5.2-3.5-8.5-6.6c-4.7-4.5-6.6-6.9-8.7-11.1c-1.5-3-2.6-6.1-2.6-6.9c0-0.8-0.3-2.5-0.7-3.7c-0.9-2.6-3.9-28.1-5.2-42.9
		c-0.7-8.5-0.9-16.5-0.8-47.3c0.1-49.7,1.9-115.2,4.7-171c0.6-11,1.2-24.8,1.3-30.8l0.3-10.8h-5.9h-5.9l-4.6-4.4
		c-2.5-2.4-5.7-5.4-7.1-6.6s-2.5-2.9-2.7-3.6c-0.1-0.7-1.1-1.8-2.2-2.4s-3.1-2.9-4.5-5.3c-1.4-2.3-3.1-5.1-3.8-6.1
		c-0.8-1.2-2.4-2.1-4.9-2.6c-2-0.4-4.2-1.3-4.9-2s-1.7-1-2.4-0.8c-0.9,0.3-1.2,0-1.2-1.3c0-1.4-0.5-1.9-2.1-2.1
		c-2.1-0.3-2.1-0.4-2.1-3.8v-3.5l-3.8-0.5c-2.4-0.3-4.2-1.1-5-2.2c-0.7-1-1.9-1.8-2.6-1.8c-0.8,0-2.1-1.2-3.1-3c-1-1.7-2.3-3-3-3
		c-1.4,0-1.8-1.4-0.7-2.4c1.2-1-1.6-4.5-5.3-6.8c-2-1.2-3.9-2.6-4.2-3.1c-0.9-1.3-1.2-6.4-0.6-9.7c0.7-3.8,3-5.6,12.7-10.1
		c5.4-2.5,7.5-3,9.3-2.4c4.1,1.3,6.4-0.5,8.3-6.5c1.1-3.4,1.6-4,3.9-5c1.5-0.6,4.3-1.2,6.3-1.3c3.1-0.2,3.7,0,4.3,1.6
		c0.9,2.5,3.7,1.7,9.1-2.9c2.2-1.9,5.6-4.1,7.5-5c1.9-0.8,4.5-2.6,5.8-4l2.4-2.4l-1.4-1.1c-0.8-0.6-1.4-1.5-1.4-1.9
		c0-1.5,6.6-7,10.3-8.6c1.9-0.9,4-1.8,4.6-2c1.2-0.5,2.7-3,2.7-4.5c0-0.5-0.5-2.1-1.2-3.7c-0.6-1.6-1.3-4.5-1.5-6.6
		c-0.2-2.1-1-5.9-1.8-8.4c-0.8-2.5-1.5-5.3-1.5-6.1s-1.4-6.6-3-12.8c-1.7-6.2-3-11.9-3-12.7s-0.7-2.7-1.5-4.3s-2-5.4-2.5-8.4
		s-3.2-13.7-5.8-23.7c-2.6-10-4.7-18.8-4.7-19.6s-1.3-4.3-2.8-7.7c-1.5-3.4-2.7-6.8-2.6-7.4c0.1-0.7-0.4-2.7-1.2-4.5
		s-1.5-4.1-1.5-5.1s-0.4-2.4-0.8-3.1c-0.5-0.8-1.8-5.6-3-10.9c-2.7-11.7-3.3-14-6.2-22.6c-5.2-15.5-12.2-39.8-13.6-47
		c-0.8-4.2-2.1-8.9-2.9-10.3c-0.8-1.4-3-8-4.9-14.6c-2-6.6-4.3-13.8-5.2-16c-0.9-2.2-3-8.8-4.6-14.7c-1.6-5.9-4.1-13.7-5.5-17.5
		s-3.4-10.4-4.5-14.9c-1.6-6.5-2.6-9.2-5.5-14.4c-2-3.5-4.5-9.4-5.7-13c-1.2-3.6-3.3-9.2-4.7-12.3c-1.4-3.2-3.7-9.7-5.2-14.4
		c-3.2-10.2-12.1-34.1-17.4-46.4c-2-4.8-3.7-9.1-3.7-9.6c0-0.5-1.4-4.3-3.1-8.4c-1.7-4.1-3.8-9.9-4.8-12.8s-2-5.2-2.4-5.2
		s-1.6-2.7-2.6-5.9c-3.6-10.9-9.3-25.1-12-29.7c-1.6-2.7-3.1-6.4-3.7-9.2c-0.6-2.7-3.4-9.8-6.6-16.7c-3.1-6.6-5.7-13-5.8-14.2
		c-0.2-1.2-0.7-2.5-1.2-2.8c-0.5-0.3-2.1-3.7-3.5-7.5c-3.8-10.2-9.2-19.5-13.6-23.7c-2.1-2-4.2-4.3-4.8-5.3s-1.8-2-2.7-2.4
		c-0.9-0.4-4.9-3.6-8.9-7.1s-9-7.7-11.1-9.1c-2.1-1.4-5.4-4.5-7.2-6.9c-1.8-2.4-5.3-6.1-7.8-8.3c-6.7-5.9-12.5-11.8-21.5-22.1
		c-4.4-5-8.3-9.1-8.6-9.1s-2.8-3.2-5.5-7c-2.7-3.9-7.1-9.2-9.7-11.9c-2.6-2.7-5.9-6.8-7.2-9c-1.3-2.2-2.8-4.1-3.3-4.1
		c-0.5,0-2.4-2.4-4.2-5.4c-4-6.5-10.1-14.2-12-15.1c-0.8-0.4-1.4-1.3-1.4-2.1c0-0.8-0.7-1.7-1.5-2c-1.6-0.6-3-2.9-5.2-8.7
		c-0.8-2-1.8-3.7-2.3-3.7c-0.5,0-2-2.5-3.3-5.5c-1.3-3.1-3-5.8-3.7-6.2c-1.7-0.8-4.6-4.8-9.8-13.1c-2.2-3.5-4.9-7.5-6-8.8
		c-1.1-1.3-3.1-4.3-4.4-6.7c-1.3-2.4-4.4-8-7.1-12.4s-5.7-10.2-6.9-12.7c-1.2-2.5-2.4-4.6-2.6-4.6c-0.7,0-3-10.3-3-13.4
		c0-4.5,2-11.4,4.2-14.6c3.6-5.2,4.3-5.1,14.7,2c2.5,1.7,8.1,4.9,12.6,7c4.4,2.1,11.8,6.4,16.3,9.5c5.4,3.7,10.1,6.1,13.4,7
		c9.4,2.7,20.7,9.6,22.9,14.1c0.7,1.5,1.7,2.4,2.7,2.4c0.9,0,2.1,0.9,2.8,2c0.7,1.1,2.7,2.9,4.6,4.1c4.8,2.9,13,10.7,19.9,18.9
		c3.2,3.8,6.2,7,6.6,7s1.9,1.6,3.4,3.6c1.4,2,3.4,3.8,4.4,4.1c1.1,0.4,2.1,1.5,2.6,3c0.4,1.3,4.3,7.6,8.5,13.9
		c4.2,6.3,12.3,18.8,18,27.9c5.7,9.1,11.5,17.9,12.8,19.7c1.4,1.8,2.5,3.7,2.5,4.4c0,2.1,7,17.4,12.6,27.4
		c9.5,17,16.5,25.3,26.7,31.7c3.1,1.9,8.9,5.7,12.9,8.4s12.1,7.9,18.1,11.5c31.3,19.2,40,24.7,41.7,26.4c1.3,1.3,2.4,1.7,3.7,1.3
		c1.1-0.4,2.4,0,3.5,0.9c2.1,1.9,3.4,2.6,16,8.6c5.7,2.7,11.8,6.1,13.7,7.5s7.3,4.2,12.1,6.2c4.8,2,9.8,4.5,11.2,5.6
		c1.4,1,5.1,2.8,8.3,4s8.3,3.1,11.3,4.4s7.7,2.8,10.3,3.4c2.6,0.6,5.9,1.8,7.3,2.5c3,1.7,10.8,4.3,16.6,5.5c2.2,0.5,6.6,2.4,9.8,4.3
		c3.2,1.9,6.8,3.8,8,4.1c1.2,0.3,4.4,1.4,7,2.3l4.7,1.7l1.8-4.1c1-2.2,2.8-7.6,4-12c1.2-4.3,2.8-9.1,3.5-10.6
		c1.4-2.9,3.5-3.6,4.5-1.6c0.5,0.9,0.9,0.7,2.1-1c1.8-2.6,2-2.7,2.1-0.4c0,3.1,1.8-2.1,3.3-9.8c1-5.4,1.7-7.3,2.7-8.1
		c1.7-1.3,5.7-0.3,6.2,1.7c0.3,1.1,0.9,1.3,2.5,0.8l2.1-0.7l-0.3,7.7c-0.2,4.2-0.2,7.7-0.1,7.7c0.1,0,0.7-1.8,1.2-4s1.1-4,1.2-4
		c0.1,0,1.2,2.1,2.4,4.7l2.2,4.7l2.9-4.7c4.2-6.8,5.5-7.9,8.5-7.4c3.6,0.6,7.1,4.2,10.4,10.8c2.2,4.4,3,6.8,3.7,11.4
		c0.9,6,4.1,14.4,4.6,11.9c0.3-1.5,2.7-1.7,2.7-0.2c0,0.6-0.4,2.3-1,3.9c-1.1,3.2-2.5,12.9-2.5,17.7c0,1.9,0.4,4.1,1,5.2
		c1.1,2.2,7.6,5.4,15.2,7.7c2.8,0.8,7.4,2.4,10.1,3.5c2.7,1.1,8.7,2.7,13.4,3.5c4.7,0.8,9.3,2.2,10.3,3c1.9,1.6,18.1,6.9,24.4,8.1
		c2.1,0.4,4.1,1.2,4.5,1.8c0.4,0.6,1.4,1,2.3,0.8c4-0.7,24.9,5.8,27.6,8.5c1,1.1,3.9,1.9,8.7,2.4c8.6,1,15.1,3,22.5,6.9
		c3.1,1.6,7.7,3.7,10.4,4.5c5.7,1.9,16.7,6.4,24.4,9.9c3,1.4,8.7,3.2,12.6,4.1c8.4,1.9,18.2,6.1,27.4,12c7.6,4.8,8,5,13.7,7
		c11.1,3.9,38,23,44.3,31.5c1.1,1.5,2.8,3.3,3.8,3.9c1,0.7,4.6,4.7,8,9.1c3.4,4.4,6.8,8.2,7.6,8.5c0.9,0.4,1.6,1.6,1.9,2.8
		c0.2,1.3,1.3,3,2.6,4c5.1,4.2,7,6,7,6.6c0,0.4,1.6,2.3,3.5,4.4c6.6,6.9,18.2,25.7,21.1,34.1c1,2.8,2.3,5.1,3.7,6.4
		c3,2.7,8.5,12.2,11,18.9c1.2,3.2,3,7.7,4,10c2.7,6.2,3.7,16.4,2.5,25.3c-0.9,6.3-9.8,24.7-15.5,32c-1.8,2.3-2.6,2.7-4.3,2.3
		c-1.6-0.4-3,0.2-6.5,3c-2.4,1.9-5.6,4-7.1,4.5c-1.5,0.6-3.6,1.9-4.6,2.9c-1,1-3.9,3.4-6.4,5.2s-7.6,6.1-11.3,9.5
		c-5.6,5.2-7.4,6.4-10.4,6.9c-2,0.3-5.8,2-8.5,3.7c-2.7,1.7-6.3,3.2-7.9,3.3c-2.5,0.2-3.1,0.7-4.5,3.4c-2.4,4.6-8,9.6-10,8.8
		c-5.1-1.9-5-1.9-10.2,2.3c-2.8,2.3-5.5,4.1-5.9,4.1c-0.5,0-2.6,1.4-4.6,3c-2.1,1.7-5.4,3.5-7.4,4c-2.3,0.6-4.9,2.3-7.3,4.6
		c-3.5,3.3-4.2,3.7-8.9,4c-4.6,0.3-5.5,0.7-8.3,3.5c-3,3-7.6,5.3-13.2,6.6c-1.4,0.3-2.9,1.2-3.3,1.9c-1.1,2-10.7,9.3-14.5,11.1
		c-6.9,3.3-8.5,4.3-9.3,5.9c-0.5,1.1-2.3,1.9-5.1,2.5c-4.9,1-9.2,3-12.3,5.9c-1.2,1.1-3.3,2-4.5,2c-2.6,0-4.9,1.5-5.5,3.3
		c-0.3,0.8-0.6,0.5-1.2-1.2c-0.7-2-1.1-2.3-2.9-1.8c-1.3,0.3-2.4,1.4-3,2.8c-1.2,3.1-5.1,3.8-7.4,1.4c-1.2-1.2-1.8-1.4-1.9-0.6
		c-0.1,0.6-0.6,1.1-1.1,1.1s-1.1,0.5-1.2,1c-0.3,1.1,0.3,1.3,2.1,1c0.9-0.1,1.1,0.3,1.1,2.2c0,3.3-1.7,6-3.8,6.2
		c-1,0.1-1.9,0.6-2.1,1.1c-0.4,1.1-8.5,6.6-9.6,6.5c-0.4,0-2.3-1.3-4.3-2.9s-3.7-2.7-3.9-2.4c-0.2,0.2-0.4,1.6-0.4,2.9
		s-0.3,2.7-0.7,3c-0.7,0.5-9.9-1.1-12.9-2.3c-1.2-0.5-1.5-0.1-1.9,2.1c-0.3,1.4-0.8,2.6-1.2,2.6s-1.5,1.8-2.4,4
		c-2,4.9-4.2,5.6-5,1.5c-0.5-2.4-1.2-3-3.3-2.5c-2.7,0.6-7.9,9.1-8.8,14.5c-0.5,3-1,3.7-5.2,6.9c-2.6,2-5.4,3.6-6.3,3.6
		c-0.9,0-2,0.8-2.6,2c-0.9,1.8-1.7,2-6.9,2c-5.6,0-5.9,0.1-7,2.5c-0.9,2-1.6,2.5-3.7,2.5c-2,0-2.7,0.4-3.4,2.3
		c-0.5,1.3-1.4,2.9-2,3.5c-1.5,1.6-6,1.5-6.3-0.1c-0.1-0.8-1,0.1-2.3,2.5c-2.2,4-3.7,4.9-3.5,2c0.1-1.5-0.2-1.7-2.1-1.7
		c-1.2,0-3,0.7-3.9,1.5c-1.4,1.2-2.1,1.1-5.8-0.8c-7-3.6-11.5-2.4-16.2,4.3c-1.3,1.9-3.3,4.7-4.4,6.2l-1.9,2.7l-2.4-1.7
		c-3-2.2-4.7-2.1-6.1,0.1c-1,1.6-1,1.9-0.3,3.1c1.1,1.9,1,5-0.4,9.1c-1,2.8-1.9,3.9-4.7,5.7c-4.5,2.9-5.3,2.9-5.1,0
		c0.1-1.5,0.7-2.4,1.7-3c1.7-0.8,5.9-7.7,4.8-7.8c-0.4,0-2.3,0.6-4.3,1.5c-3.6,1.5-6.9,4.3-9.7,8.2c-0.8,1.1-1.9,2.3-2.5,2.7
		c-2,1.2-5,6.3-6.6,11.1c-1.4,4.3-1.6,5.6-1.6,12c0,3.9,0.3,8.7,0.6,10.6c1.1,6.7,4.6,11.8,10.4,15.3c1.5,0.9,3.1,2.5,3.7,3.6
		c0.5,1.1,1.6,2,2.3,2c2.1,0,5.9,2.5,10.8,7c2.7,2.5,14.8,10.2,31.4,20.1c45.2,26.9,47,28,47.3,29c0.2,0.5,1.9,1.6,3.8,2.4
		c4.8,2,16.8,8.2,18,9.3c0.6,0.5,3.4,2.3,6.3,4.1c2.9,1.7,7,4.3,9,5.7c2.1,1.4,5,3.5,6.5,4.5c1.5,1,3.3,2.6,3.9,3.4
		c0.6,0.8,2.5,2.4,4,3.4c1.6,1,3.9,2.7,5.1,3.6c1.2,0.9,3.1,2.1,4,2.5c1.8,0.8,7.7,5.1,10.3,7.5c0.8,0.8,2.8,2.1,4.4,2.9
		c3.9,2,11.3,7,13.2,9c0.8,0.9,2.1,1.6,2.9,1.6c1.2,0,3.1,1.5,3.9,3c0.1,0.3,0.6,0.6,1,0.8s2.2,1.7,4,3.4c1.8,1.7,4.1,3.4,5,3.8
		c1,0.4,2.3,1,3,1.3c0.7,0.3,1.6,1.2,2,2.1s1,1.5,1.2,1.5s1.5,1.1,3,2.4c1.5,1.3,4.1,3.2,5.9,4.2c1.8,1,3.6,2.4,4.1,3.1
		c0.4,0.7,1.4,1.3,2.1,1.3s1.7,0.7,2.1,1.6s0.8,1.3,0.8,1s0.9,0.3,2,1.4s2.3,2,2.8,2c0.4,0,2.2,1.3,3.9,3c1.7,1.7,3.4,3,3.8,3
		c0.7,0,4.4,3.3,9.3,8.2c1.6,1.6,3.3,2.8,3.9,2.8s2.2,1.1,3.6,2.5c1.4,1.4,2.9,2.5,3.5,2.5s1.3,0.6,1.7,1.3c0.9,1.9,3.4,3.9,9.2,7.6
		c2.8,1.8,5.4,3.6,5.9,4.1s1.2,1,1.7,1c0.4,0,2.3,1.4,4.2,3.1c1.8,1.7,4.5,4.1,5.8,5.4c4.4,4,6,5.5,7.8,7.5c1,1.1,2.1,2,2.6,2
		c0.5,0,0.9,0.3,0.9,0.8c0,2.1,16.7,16.2,17.5,14.8c0.1-0.2,0.7,0.5,1.3,1.5c0.6,1.1,1.4,1.9,1.7,1.9c0.4,0,2.1,1.6,3.7,3.5
		c1.7,1.9,3.2,3.3,3.4,3c0.6-0.7,3.5,1.5,3.5,2.6c0,0.5,0.6,0.9,1.3,0.9s1.3,0.4,1.3,1s0.3,1,0.8,1s0.8,0.4,0.8,0.8s1.3,2,2.9,3.4
		c1.6,1.4,3.5,3.3,4.1,4.1c2.1,2.4,7,6.7,7.8,6.7c0.4,0,0.7,0.4,0.7,1s0.2,0.9,0.4,0.8c0.2-0.1,1.4,0.8,2.7,2.1
		c1.3,1.3,2.8,2.4,3.4,2.4c0.6,0.1,1,0.5,1,0.9c0,0.6,1.1,1.6,2.5,2.4c0.1,0.1,0.6,0.4,1,0.7c1.1,0.8,7.2,5.2,7.5,5.4
		c1.9,1.1,2.5,1.8,2.5,2.5c0,0.5,0.3,0.9,0.8,0.9s0.8,0.4,0.8,1c0,0.9,4,5,4.8,5c0.4,0,2.9,2.2,6.5,5.7c1.4,1.3,2.9,2.6,3.4,2.7
		c0.5,0.1,1.1,0.7,1.2,1.3c0.2,0.6,1.5,2.2,2.8,3.5c1.4,1.3,3,2.9,3.5,3.5s1.9,1.9,3,2.8c1.1,0.9,3.1,2.8,4.4,4.1
		c1.3,1.3,4.1,3.4,6.3,4.5c2.1,1.2,4.2,2.5,4.7,3c1.8,1.9,4.5,4,8.4,6.4c3,1.9,5.1,4,7.5,7.6c1.9,2.8,3.8,5.5,4.4,6
		c0.6,0.5,1.6,2.5,2.2,4.3s1.7,4.1,2.3,4.9c0.6,0.8,1.7,3.7,2.3,6.3c0.6,2.6,1.4,5.9,1.7,7.3c0.3,1.4,1,6.1,1.5,10.5
		c0.7,6.7,0.7,8.7,0.2,12.2c-0.3,2.3-0.8,4.2-1,4.2c-0.2,0-0.4,0.6-0.4,1.3s-0.6,2.5-1.3,4c-0.7,1.5-1.3,3.1-1.3,3.6
		c0,1.1-2.4,5.3-3.9,7c-7.4,8.3-6.1,7.6-14.7,7.8C895.9,1339.3,891.9,1339.2,891.2,1338.9L891.2,1338.9z M550.2,846.4
		c-0.2-0.6-0.6-0.5-1,0.2c-0.4,0.6-0.6,1.6-0.4,2.1c0.2,0.6,0.6,0.5,1-0.2C550.2,847.9,550.4,846.9,550.2,846.4z M547.5,842.4
		c0-1.2-1.4-1.1-1.8,0.1c-0.5,1.7,0.3,3.2,1,1.9C547.2,843.8,547.5,842.9,547.5,842.4z M571.8,827.9c-0.3-0.3-1-0.3-1.5,0
		c-0.5,0.3-0.2,0.5,0.6,0.5C571.7,828.4,572.1,828.2,571.8,827.9L571.8,827.9z M578.7,826.6c0.6-0.7,0.2-1-1.4-1
		c-1.2,0-2.2,0.4-2.4,1C574.5,827.9,577.7,827.9,578.7,826.6z M537.5,819.1c0.5-1.2,0.5-1.5-0.3-1.5c-0.5,0-1.5,0.7-2.2,1.5
		l-1.3,1.4l1.6,0C536.1,820.5,537.1,819.9,537.5,819.1z M494.7,790c3.2-1.4,8.2-4.1,11.1-6c2.9-1.9,9.5-5.6,14.6-8.3
		c9.2-4.9,16.1-8.7,29.2-16.3c3.8-2.2,9.1-4.9,11.8-6s5.5-2.6,6.2-3.3c0.7-0.7,2.4-1.6,3.8-2c1.4-0.4,2.8-1.3,3.3-2.1
		s3.4-2.4,6.6-3.5c7.2-2.6,13.8-5.9,21.7-10.9c3.4-2.1,12.4-7.3,20-11.5c7.6-4.2,15.9-8.9,18.3-10.5s11.3-6.7,19.7-11.4
		c8.3-4.7,17-9.9,19.3-11.6s6.4-4.1,9.2-5.5c2.8-1.4,8.7-5.3,13.1-8.8s9.7-7.1,11.6-8c8.6-4.1,20-12.5,29.1-21.5c4.9-4.8,5-5,3.6-6
		c-0.8-0.6-1.7-1.1-2.1-1.1c-1.1,0,0.6-5.9,2.4-8.1c1.7-2,4.8-4.4,6.9-5.3c0.7-0.3,3-3,5.1-6.1s4.7-6.2,5.7-7.1
		c2.1-1.7,5.3-5.6,14-16.9c3.1-4,6.5-8.2,7.6-9.3c2.1-2.2,3.5-4.8,3-5.8c-0.2-0.3-0.9,0.4-1.6,1.5c-3,4.7-3,1.6,0-6.9
		c1.2-3.5,2.3-7.2,2.3-8.1c0-1.4-1.3-2.6-5.6-5.3c-9.4-6.1-15-8-15.8-5.5c-0.6,1.8-1.3,1-1.3-1.5c0-3.1-1.5-4-10.6-6.1
		c-7.6-1.7-10.8-2.7-17.3-5.5c-2.5-1-6.3-2.4-8.5-3c-2.2-0.6-5.2-2-6.8-3.1c-1.5-1.1-5.6-2.9-9.1-4c-3.5-1.1-9.2-3.1-12.8-4.5
		c-3.6-1.3-11.6-3.8-17.8-5.5s-12.8-3.8-14.6-4.6c-5.6-2.6-8.1-3.4-15.3-5c-3.8-0.8-7.8-2.1-8.8-2.9c-1-0.7-3.9-1.6-6.5-1.9
		c-2.6-0.3-5.5-1.3-6.5-2.1c-1-0.8-2.3-1.5-2.9-1.5s-2.1-0.7-3.3-1.5c-1.2-0.8-4.6-2-7.5-2.5s-6.1-1.6-7-2.4c-1-0.8-4.4-1.9-7.5-2.4
		c-3.9-0.7-7.3-2-10.5-4c-5-3.2-10.7-4.1-11.4-1.9c-0.5,1.6-11,0.5-15.8-1.6c-4.7-2.1-13.5-6.7-19.1-10.1c-2.3-1.4-6.1-3-8.3-3.5
		s-5.6-1.5-7.5-2.1c-7.1-2.2-6.6-2.2-7.5,0.4c-0.4,1.4-1.2,6.7-1.6,11.8s-1.3,11.7-2,14.6c-1.7,7.3-2.5,15.2-2,20.4
		c0.2,2.4,0.4,7,0.4,10.2l0,5.8l1.7-3.3c0.9-1.8,1.6-2.6,1.4-1.8c-0.1,0.8-0.7,4.7-1.3,8.7c-1.1,7.7-1.7,9.1-2.7,7.4
		c-0.5-0.9-0.7-0.2-0.9,3.5c-0.1,2.5-0.7,5.4-1.1,6.5c-0.5,1.1-1,4.1-1.1,7.2c-0.1,2.9-0.8,8.4-1.4,12.3s-1.6,12.6-2.2,19.5
		c-1.1,13.5-1.7,17.9-4,31c-1.6,8.9-3.2,23.9-4,37.4c-0.3,5-0.8,8.8-1.5,10.5c-0.5,1.4-1.1,3.8-1.3,5.3c-0.3,2.8,0.4,7.8,1.3,8.9
		c0.8,1,0.1,4.1-2.6,11.6c-2.9,8-3.3,10.3-4,24.6c-0.3,6.5-1,13.7-1.7,18c-1.6,9.5-2.6,17.8-3.5,31.7c-0.7,10.8-1.2,15.1-2,19.2
		C488,793,487.8,793,494.7,790L494.7,790z M505.1,775.5c-0.4-1.2,0.9-2.3,2.1-1.8c0.5,0.2,1,0.9,1.1,1.6
		C508.5,776.8,505.5,777.1,505.1,775.5z M537,759.5c-0.7-0.9-0.7-1.1,0-2c0.4-0.5,1.2-1,1.8-1c0.6,0,1.3,0.4,1.8,1
		c0.7,0.9,0.7,1.1,0,2c-0.4,0.5-1.2,1-1.8,1C538.2,760.5,537.4,760.1,537,759.5z M552.3,750c0.5-0.8,1.4-1.5,2-1.4
		c1,0,1,0.1,0.1,1.5c-0.5,0.8-1.4,1.5-2,1.4C551.3,751.5,551.3,751.5,552.3,750z M616.4,777.6c0-1.3-1-1.3-2,0c-0.6,0.8-0.4,1,0.6,1
		C615.7,778.5,616.4,778.1,616.4,777.6z M702,758.6c0.4,0,1.2-0.9,1.8-2l1.2-2l-1.4,0c-0.8,0-2,1.1-2.8,2.6c-1,1.8-1.1,2.4-0.5,2
		C700.9,758.8,701.6,758.6,702,758.6L702,758.6z M410.6,708.9c0.7-3.1,4.4-32.9,7.3-60.3c0.5-4.7,1.4-12.3,1.9-17s1.5-13,2.1-18.5
		s1.8-14.7,2.7-20.5s2.3-16.1,3-23c1.8-16.6,4.3-32.5,7.5-49c1.7-8.6,3.2-18.2,4-26.5c1.9-18.8,3.2-25.9,4.7-26.3
		c1.6-0.4,2.2,1.5,1.8,5.8c-0.3,3.4-0.2,3.4,0.6,1.5c0.5-1.1,2.1-7.1,3.6-13.3c4.5-18.7,5-23,3-25.6c-1.8-2.3-9.6-6.1-25.7-12.5
		c-15.3-6.1-45.9-20.8-53.3-25.6c-3.7-2.4-14.6-8.3-22.4-12.1c-7.6-3.7-27.1-15.6-33-20.2c-2.3-1.8-4.7-3.2-5.4-3.2
		s-3.7-2.1-6.7-4.6c-4.5-3.8-6-4.6-8.3-4.5c-2.2,0.1-4.1-0.8-8.1-3.8c-8.1-6.1-13.4-8.5-13.4-6c0,0.6,1.1,3.6,2.5,6.7
		s2.9,7.2,3.3,9.2s2.6,7.2,4.8,11.7c2.4,4.9,3.9,8.9,3.9,10.2c0,1.2,0.6,3,1.5,4.2c0.8,1.1,2.3,4.6,3.3,7.7c1,3.1,3.4,9.1,5.4,13.2
		c2.3,5.1,3.4,8.2,3.2,9.4c-0.1,1.1,0.1,2.2,0.7,2.8c0.5,0.6,2.3,5.1,4,10.1s3.6,10,4.3,11.2c0.7,1.2,1.7,4,2.3,6.2
		c0.6,2.2,2,6.2,3.2,8.8c2.8,6.1,10.3,25.8,14,36.7c1.6,4.7,3.5,9.8,4.3,11.3c0.7,1.5,2.2,5.6,3.2,9.1c2.2,7.5,4,11.1,7.2,14.5
		c1.9,2.1,2.4,3.2,2.6,5.8c0.2,2.3,0.7,3.8,1.8,5.2c2.1,2.6,5,12.4,5.9,20c0.8,7.2,4.7,20.8,7.2,25.1c0.9,1.6,1.6,3.8,1.6,4.9
		c0,1.1,0.5,2.5,1,3.1c0.6,0.6,1,2.1,1,3.5c0,4.1,0.5,5.5,2,5.5c1.2,0,1.5,0.7,2.2,4.5c2,10.2,11.7,39.6,16.8,50.8
		c1.6,3.4,2.4,6.1,2.3,7c-0.4,2.1,2.5,13.1,4.8,18c1.1,2.3,2.2,5.8,2.5,7.7c0.6,3.9,5.5,18.9,7.5,23.1
		C408.7,714,409.4,713.6,410.6,708.9L410.6,708.9z M445.1,460.2c-0.3-0.8-0.5-3-0.5-4.8c0.1-2.8,0.4-3.3,1.4-3.3
		c1.2,0,1.3,0.4,1.3,4.5C447.3,461.4,446.3,463,445.1,460.2L445.1,460.2z M754.8,631.6c-0.2-0.5-0.6-0.7-1-0.4
		c-1,0.8-0.9,1.3,0.3,1.3C754.6,632.6,755,632.1,754.8,631.6z M765.4,624c3.8-3.6,8.1-7.6,9.5-9c2.5-2.3,6-8.5,4.9-8.5
		c-0.3,0-0.7,0.5-0.9,1c-0.8,2.5-11,11-13.3,11c-0.5,0-1.2-0.9-1.5-2c-0.7-2.8-1.6-1.4-1.3,2c0.3,3.1,0,4-3.3,7.4
		c-2.2,2.3-3.1,4.7-1.9,4.7C758.1,630.6,761.5,627.6,765.4,624L765.4,624z M490.7,355.4c0.8-1.6,0.8-2.8-0.1-2.8
		c-0.9,0-1.9,2.4-1.5,3.3C489.6,356.9,490,356.7,490.7,355.4z M141.8,156c-6-10.4-11.5-17.9-12.4-16.9c-0.8,1-0.4,2.4,0.6,2.4
		c0.6,0,1.6,1.4,2.4,3.2c1.3,3.2,9.9,14.8,10.9,14.8C143.6,159.5,142.9,158,141.8,156z M521.4,861.6c0-1.4,0.3-2.1,1-2.1
		s1,0.5,0.9,1.7C523.1,863.9,521.4,864.2,521.4,861.6z M594.9,824.8c0.2-2,2.2-4.2,4.7-5c1.5-0.5,1.7-0.3,1.7,1.5
		c0,3-1.9,5.2-4.4,5.2C595.1,826.6,594.7,826.3,594.9,824.8L594.9,824.8z M610.3,812.6c0-1.1,0.5-2.5,1.1-3.1c1.4-1.5,3.5,0.3,3.5,3
		c0,1.7-0.3,2-2.3,2C610.7,814.6,610.3,814.3,610.3,812.6L610.3,812.6z M537.2,370.6c-0.4-1.4,0.1-3.1,1.1-3.1
		c0.4,0,0.7,0.7,0.6,1.7C538.7,371.2,537.7,372.1,537.2,370.6L537.2,370.6z"/>
</g>
</svg>
