<?xml version="1.0" encoding="UTF-8" standalone="no"?>
<svg
   xmlns:dc="http://purl.org/dc/elements/1.1/"
   xmlns:cc="http://creativecommons.org/ns#"
   xmlns:rdf="http://www.w3.org/1999/02/22-rdf-syntax-ns#"
   xmlns:svg="http://www.w3.org/2000/svg"
   xmlns="http://www.w3.org/2000/svg"
   xmlns:sodipodi="http://sodipodi.sourceforge.net/DTD/sodipodi-0.dtd"
   xmlns:inkscape="http://www.inkscape.org/namespaces/inkscape"
   version="1.1"
   id="svg10"
   width="1896"
   height="1400"
   viewBox="0 0 1896 1400"
   sodipodi:docname="r-revamp.svg"
   inkscape:version="1.0.1 (3bc2e813f5, 2020-09-07)">
  <metadata
     id="metadata16">
    <rdf:RDF>
      <cc:Work
         rdf:about="">
        <dc:format>image/svg+xml</dc:format>
        <dc:type
           rdf:resource="http://purl.org/dc/dcmitype/StillImage" />
        <dc:title></dc:title>
      </cc:Work>
    </rdf:RDF>
  </metadata>
  <defs
     id="defs14" />
  <sodipodi:namedview
     pagecolor="#ffffff"
     bordercolor="#666666"
     borderopacity="1"
     objecttolerance="10"
     gridtolerance="10"
     guidetolerance="10"
     inkscape:pageopacity="0"
     inkscape:pageshadow="2"
     inkscape:window-width="1536"
     inkscape:window-height="801"
     id="namedview12"
     showgrid="false"
     inkscape:zoom="0.37658228"
     inkscape:cx="948"
     inkscape:cy="700"
     inkscape:window-x="-8"
     inkscape:window-y="-8"
     inkscape:window-maximized="1"
     inkscape:current-layer="g18" />
  <g
     inkscape:groupmode="layer"
     inkscape:label="Image"
     id="g18">
    <path
       style="fill:#000000"
       d="m 1730.5882,1336.2284 c -1.375,-0.2742 -2.9275,-0.9104 -3.45,-1.4139 -0.5225,-0.5034 -1.6599,-0.9153 -2.5276,-0.9153 -0.8677,0 -4.9711,-1.6875 -9.1185,-3.75 -4.1475,-2.0625 -8.1851,-3.8979 -8.9724,-4.0788 -0.7873,-0.1808 -2.1419,-0.9683 -3.0102,-1.75 -0.8683,-0.7816 -2.0683,-1.4212 -2.6667,-1.4212 -0.5984,0 -1.2379,-0.3375 -1.4213,-0.75 -0.4209,-0.9472 -10.0743,-5.6792 -11.0833,-5.433 -0.4125,0.1007 -0.75,-0.267 -0.75,-0.817 0,-0.55 -0.6199,-1 -1.3776,-1 -0.7576,0 -1.9336,-0.67 -2.6133,-1.489 -0.6796,-0.8189 -1.6023,-1.2624 -2.0504,-0.9855 -0.4481,0.277 -1.1024,-0.403 -1.4541,-1.511 -0.3527,-1.1113 -1.513,-2.0145 -2.5877,-2.0145 -2.5929,0 -9.9169,-2.3154 -9.9169,-3.1351 0,-0.3564 -1.125,-0.9304 -2.5,-1.2755 -1.375,-0.3451 -2.5,-1.0689 -2.5,-1.6085 0,-0.5395 -0.675,-0.9809 -1.5,-0.9809 -0.825,0 -1.5,-0.45 -1.5,-1 0,-0.55 -0.675,-1 -1.5,-1 -0.825,0 -1.5,-0.3964 -1.5,-0.8808 0,-0.7448 -3.7483,-2.8561 -17.0542,-9.6063 -1.0702,-0.5429 -1.9458,-1.3304 -1.9458,-1.75 0,-0.4196 -0.5191,-0.7629 -1.1535,-0.7629 -1.5527,0 -11.9401,-4.9516 -13.3623,-6.3697 -0.6234,-0.6217 -3.4479,-2.2553 -6.2766,-3.6303 -2.8287,-1.375 -5.3899,-3.175 -5.6915,-4 -0.5072,-1.3869 -19.2234,-8.106 -22.3731,-8.0319 -0.7655,0.018 -1.12,-0.5856 -0.8133,-1.3849 0.5886,-1.5339 -5.6943,-4.5832 -9.4436,-4.5832 -1.2068,0 -2.2841,-0.8061 -2.5777,-1.9287 -0.3454,-1.3207 -1.7326,-2.1361 -4.4011,-2.587 -2.1433,-0.3621 -4.1553,-1.0765 -4.4712,-1.5876 -0.3158,-0.5111 -0.9278,-0.7109 -1.3598,-0.4438 -0.4321,0.267 -1.8294,-0.6257 -3.1053,-1.9837 -1.2758,-1.3581 -3.0333,-2.4692 -3.9055,-2.4692 -0.8723,0 -2.7178,-1.0125 -4.1012,-2.25 -1.3834,-1.2375 -4.1913,-3.1084 -6.2398,-4.1575 -2.0485,-1.0491 -3.7245,-2.2508 -3.7245,-2.6705 0,-0.4197 -1.4625,-1.0827 -3.25,-1.4733 -4.0504,-0.8852 -39.4273,-17.5393 -43.25,-20.3605 -0.55,-0.4059 -2.8924,-1.2789 -5.2053,-1.9399 -2.313,-0.661 -4.8054,-1.7523 -5.5387,-2.4251 -2.3032,-2.113 -5.6516,-3.7232 -7.7424,-3.7232 -1.1075,0 -2.0136,-0.3565 -2.0136,-0.7922 0,-0.4357 -2.8197,-2.4417 -6.266,-4.4577 -3.4464,-2.016 -7.2598,-4.5913 -8.4743,-5.7228 -2.6535,-2.4721 -6.0887,-3.8537 -12.7079,-5.1109 -2.7215,-0.5169 -5.1965,-1.3231 -5.5,-1.7916 -0.7708,-1.1898 -16.8903,-9.1248 -18.5366,-9.1248 -0.7417,0 -1.4985,-0.3913 -1.6819,-0.8697 -0.325,-0.8479 -12.0917,-6.2306 -16.5833,-7.5861 -1.2375,-0.3734 -2.25,-1.0486 -2.25,-1.5003 0,-0.4517 -1.6723,-1.135 -3.7162,-1.5185 -2.044,-0.3834 -4.9173,-1.5523 -6.3852,-2.5976 -1.4679,-1.0452 -4.849,-2.8349 -7.5137,-3.9771 -2.6646,-1.1422 -5.0788,-2.4047 -5.3648,-2.8055 -1.2452,-1.7446 -19.2053,-8.7608 -21.2701,-8.3092 -0.4125,0.09 -0.75,-0.2354 -0.75,-0.7235 0,-0.4881 -2.925,-2.1306 -6.5,-3.65 -3.575,-1.5194 -6.5,-3.073 -6.5,-3.4525 0,-0.3794 -1.8,-1.2839 -4,-2.01 -2.2,-0.7261 -4,-1.8511 -4,-2.5 0,-1.2999 -9.3644,-4.4229 -15.114,-5.0405 -0.8877,-0.095 -2.1235,-0.4883 -2.7463,-0.8731 -1.2411,-0.7671 -3.1151,-1.2535 -10.6397,-2.7615 -2.75,-0.5511 -5.6079,-1.505 -6.3509,-2.1196 -0.743,-0.6147 -2.0479,-1.2199 -2.8999,-1.345 -0.8519,-0.125 -1.8386,-0.6959 -2.1925,-1.2686 -0.3539,-0.5726 -1.6426,-1.1937 -2.8637,-1.38 -1.2211,-0.1864 -2.754,-0.8727 -3.4066,-1.5253 -0.6525,-0.6525 -1.801,-1.1864 -2.5521,-1.1864 -0.7512,0 -2.3487,-0.5553 -3.55,-1.2339 -1.2014,-0.6787 -4.2093,-1.773 -6.6843,-2.4318 -6.9573,-1.8518 -16.3375,-5.3727 -18,-6.7565 -0.825,-0.6866 -3.075,-1.8296 -5,-2.5399 -1.925,-0.7103 -6.2,-2.5488 -9.5,-4.0856 -13.7127,-6.3859 -17.4568,-7.9523 -19.0085,-7.9523 -0.8989,0 -2.3094,-0.675 -3.1344,-1.5 -0.825,-0.825 -2.3678,-1.5 -3.4285,-1.5 -1.0607,0 -1.9286,-0.45 -1.9286,-1 0,-0.55 -1.1311,-1 -2.5136,-1 -1.3824,0 -3.2949,-0.4122 -4.25,-0.9159 -4.6681,-2.4624 -15.9074,-6.6772 -29.3828,-11.0188 -3.1055,-1.0006 -6.2555,-2.2052 -7,-2.677 -0.7445,-0.4717 -1.5786,-0.9142 -1.8536,-0.9833 -0.275,-0.069 -1.9524,-0.4677 -3.7276,-0.8858 -1.7751,-0.4181 -3.7427,-1.381 -4.3724,-2.1397 -0.6297,-0.7587 -1.7283,-1.3795 -2.4414,-1.3795 -0.7131,0 -2.5705,-0.62 -4.1276,-1.3778 -1.557,-0.7578 -4.856,-2.0577 -7.331,-2.8887 -8.5241,-2.8621 -11.5177,-4.0268 -17.5,-6.8082 -3.3,-1.5343 -7.8,-2.9115 -10,-3.0603 -3.4166,-0.2311 -7.7071,-1.9662 -9.5,-3.8419 -0.275,-0.2877 -1.5921,-0.6774 -2.9268,-0.8659 -1.3348,-0.1886 -3.4488,-1.0124 -4.6979,-1.8308 -1.249,-0.8184 -2.8569,-1.6075 -3.5731,-1.7536 -0.7162,-0.146 -2.569,-0.7846 -4.1173,-1.4191 -1.5483,-0.6346 -3.2327,-1.1537 -3.7431,-1.1537 -1.659,0 -8.9418,-3.45 -8.9418,-4.2359 0,-0.4203 -1.0405,-0.7641 -2.3122,-0.7641 -1.2717,0 -4.0842,-0.8411 -6.25,-1.869 -3.4881,-1.6556 -12.0223,-4.0638 -16.3795,-4.6221 -4.1678,-0.534 -8.0984,-1.8887 -9.7781,-3.37 -1.0221,-0.9014 -2.5157,-1.8222 -3.3192,-2.0463 -21.9635,-6.1251 -37.8553,-10.0858 -56.96096,-14.1963 -15.38425,-3.3099 -26.78084,-6.3659 -33,-8.8491 -5.225,-2.0862 -16.025,-5.6663 -24,-7.95575 -7.975,-2.2894 -17.875,-5.4566 -22,-7.0383 -4.125,-1.5817 -9.04764,-3.0282 -10.9392,-3.2145 -2.94838,-0.2904 -3.54069,0.018 -4.15032,2.1613 -0.39112,1.375 -0.76586,71.57505 -0.83276,156.00005 -0.11776,148.6 -0.18237,153.6338 -2.02407,157.6903 -3.13267,6.9001 -9.55717,13.0848 -15.39214,14.8176 -2.79735,0.8307 -7.80306,2.9266 -11.1238,4.6575 -7.1954,3.7505 -13.28196,4.28 -16.4323,1.4296 -2.95825,-2.6766 -2.63029,-3.595 1.28381,-3.595 1.86406,0 4.38527,-0.8066 5.60267,-1.7923 2.09356,-1.6953 2.11827,-1.8713 0.45613,-3.25 -1.41817,-1.1764 -6.02166,-1.4672 -23.85267,-1.5068 -24.09181,-0.053 -32.56724,-1.1283 -39.17899,-4.9684 -3.93189,-2.2837 -9.28029,-7.5566 -12.41636,-12.2411 -1.01198,-1.5116 -3.12674,-2.5458 -6.5,-3.1787 -2.75,-0.5159 -10.38964,-3.5058 -16.97697,-6.6441 -9.42514,-4.4904 -13.10045,-6.8568 -17.25,-11.1071 -2.90017,-2.9705 -5.27303,-6.0716 -5.27303,-6.8914 0,-0.8198 -0.6516,-2.4871 -1.44801,-3.7053 -1.69332,-2.59 -7.83604,-28.1384 -10.3252,-42.9439 -1.43728,-8.5489 -1.70786,-16.4742 -1.61389,-47.2709 0.15162,-49.688 3.76191,-115.2147 9.42151,-171 1.11598,-11.00005 2.30854,-24.83755 2.65011,-30.75005 l 0.62106,-10.75 H 727.1952 715.49657 l -9.20416,-4.38358 c -5.06229,-2.41097 -11.37793,-5.39367 -14.03476,-6.62822 -2.65682,-1.23455 -5.06559,-2.85705 -5.35282,-3.60556 -0.28723,-0.74851 -2.24796,-1.82562 -4.35718,-2.39357 -2.10921,-0.56795 -6.15692,-2.93534 -8.99491,-5.26086 -2.83799,-2.32551 -6.19769,-5.07124 -7.46602,-6.10162 -1.52135,-1.23594 -4.81485,-2.11905 -9.67895,-2.5953 -4.0551,-0.39705 -8.42382,-1.28433 -9.70828,-1.97175 -1.28445,-0.68742 -3.40994,-1.04443 -4.72331,-0.79337 -1.80342,0.34475 -2.38794,0.0149 -2.38794,-1.34734 0,-1.40726 -0.93438,-1.87144 -4.25,-2.11133 -4.13191,-0.29896 -4.25,-0.40475 -4.25,-3.8075 v -3.5 l -7.5,-0.5 c -4.85963,-0.32398 -8.37044,-1.11609 -9.97251,-2.25 -1.35987,-0.9625 -3.70672,-1.75 -5.2152,-1.75 -1.62148,0 -4.13949,-1.2264 -6.15951,-3 -1.93539,-1.6993 -4.55188,-3 -6.0348,-3 -2.71433,0 -3.55434,-1.4445 -1.36798,-2.35241 2.32983,-0.9675 -3.15534,-4.50416 -10.5657,-6.81242 -3.95136,-1.23082 -7.69257,-2.60734 -8.31379,-3.05894 -1.75414,-1.27518 -2.41141,-6.36047 -1.25197,-9.68644 1.31651,-3.77652 6.00742,-5.63614 25.36402,-10.05505 10.78,-2.46096 15.01724,-3.02152 18.5,-2.44742 8.10641,1.33625 12.65383,-0.46696 16.48581,-6.53722 2.11578,-3.35161 3.19265,-4.04237 7.74456,-4.96774 2.90789,-0.59116 8.52895,-1.18902 12.49125,-1.3286 6.1048,-0.21503 7.41685,0.0365 8.59783,1.64838 1.8649,2.54532 7.31302,1.67202 18.11378,-2.90353 4.44631,-1.88361 11.12949,-4.11169 14.85149,-4.95129 3.72201,-0.83961 8.89701,-2.61712 11.5,-3.95004 l 4.73272,-2.42348 -2.75,-1.06215 c -1.5125,-0.58418 -2.75,-1.45667 -2.75,-1.93886 0,-1.47737 13.09094,-7.00093 20.5,-8.64973 3.85,-0.85677 7.98103,-1.77563 9.18007,-2.04191 2.30775,-0.51251 5.31993,-3.04676 5.31993,-4.47585 0,-0.46852 -1.0563,-2.12388 -2.34733,-3.67857 -1.29104,-1.5547 -2.61733,-4.54245 -2.94731,-6.63945 -0.32999,-2.097 -1.97369,-5.88665 -3.65267,-8.42144 -1.67898,-2.5348 -3.05269,-5.27686 -3.05269,-6.09346 0,-0.8166 -2.7,-6.55514 -6,-12.75232 -3.3,-6.19718 -6,-11.89271 -6,-12.65674 0,-0.76403 -1.3487,-2.68128 -2.99712,-4.26056 -1.64841,-1.57928 -3.92977,-5.37597 -5.06968,-8.43709 -1.1399,-3.06112 -6.3162,-13.72797 -11.50288,-23.70412 -5.18668,-9.97615 -9.43032,-18.80688 -9.43032,-19.62384 0,-0.81696 -2.5041,-4.29178 -5.56467,-7.72182 -3.06057,-3.43005 -5.35643,-6.77911 -5.10192,-7.44236 0.25452,-0.66326 -0.84138,-2.69961 -2.43533,-4.52523 -1.59394,-1.82563 -2.89808,-4.10324 -2.89808,-5.06136 0,-0.95813 -0.75261,-2.35965 -1.67247,-3.1145 -0.91986,-0.75484 -3.63466,-5.64744 -6.03288,-10.87244 -5.37933,-11.71991 -6.62381,-13.99857 -12.35953,-22.63028 -10.31238,-15.51916 -24.3153,-39.79781 -27.12071,-47.02263 -1.64734,-4.24244 -4.22509,-8.86857 -5.72833,-10.2803 -1.50325,-1.41174 -5.91746,-7.96679 -9.80936,-14.56679 -3.89191,-6.6 -8.51331,-13.8 -10.26979,-16 -1.75648,-2.2 -5.87208,-8.80374 -9.14578,-14.67498 -3.2737,-5.87123 -8.22154,-13.74623 -10.99519,-17.5 -2.77366,-3.75376 -6.79286,-10.43656 -8.93155,-14.85065 -3.15069,-6.50279 -5.24214,-9.23756 -11.02227,-14.41264 -3.92356,-3.51285 -9.03511,-9.35332 -11.359,-12.97883 -2.32389,-3.62551 -6.48934,-9.17912 -9.25654,-12.34136 -2.76721,-3.16224 -7.42806,-9.65787 -10.35746,-14.43473 -6.28315,-10.24572 -24.06072,-34.10809 -34.53295,-46.3527 -4.0734,-4.7628 -7.4182,-9.0634 -7.43287,-9.55688 -0.0147,-0.49348 -2.76945,-4.27223 -6.12172,-8.39723 -3.35228,-4.125 -7.6291,-9.8625 -9.50405,-12.75 -1.87496,-2.8875 -4.02153,-5.25 -4.77018,-5.25 -0.74864,0 -3.09731,-2.65902 -5.21927,-5.90893 -7.11627,-10.89903 -18.52145,-25.11683 -23.81222,-29.68455 -3.11088,-2.68574 -6.11069,-6.43489 -7.37474,-9.21691 -1.22805,-2.7028 -6.81801,-9.77304 -13.19435,-16.68838 -6.08496,-6.59933 -11.31377,-12.9957 -11.61959,-14.21417 -0.30582,-1.21846 -1.35982,-2.4705 -2.34223,-2.78231 -0.98241,-0.31181 -4.09821,-3.67609 -6.92398,-7.47618 -7.56565,-10.17426 -18.23363,-19.50326 -27.09099,-23.69068 -4.125,-1.95015 -8.4,-4.33853 -9.5,-5.30753 -1.1,-0.969 -3.52467,-2.04842 -5.38815,-2.39872 -1.86348,-0.35029 -9.84253,-3.56106 -17.73122,-7.13503 -7.8887,-3.57398 -17.83903,-7.66792 -22.11185,-9.09765 -4.27283,-1.42972 -10.69378,-4.53893 -14.26878,-6.90935 -3.575,-2.37042 -10.59227,-6.11051 -15.59393,-8.31131 -13.30446,-5.85416 -24.90003,-11.82677 -42.85751,-22.07494 -8.7733,-5.00684 -16.48149,-9.10335 -17.12932,-9.10335 -0.64783,0 -5.60575,-3.1589 -11.01759,-7.01977 -5.41185,-3.86088 -14.12865,-9.23624 -19.37069,-11.94524 -5.24203,-2.70901 -11.71746,-6.75012 -14.38984,-8.98023 -2.67239,-2.23012 -5.65267,-4.05476 -6.62285,-4.05476 -0.97018,0 -4.73883,-2.43845 -8.37479,-5.41878 -7.90405,-6.47882 -20.07235,-14.17934 -23.89348,-15.12062 -1.5125,-0.37258 -2.75,-1.31488 -2.75,-2.09401 0,-0.77912 -1.3436,-1.68531 -2.98579,-2.01375 -3.21243,-0.64248 -5.89327,-2.90297 -10.30684,-8.69071 -1.53595,-2.01417 -3.61879,-3.66213 -4.62853,-3.66213 -1.00974,0 -3.95053,-2.4752 -6.53508,-5.50045 -2.62603,-3.07381 -5.87812,-5.78762 -7.37147,-6.15138 -3.30312,-0.80458 -9.164792,-4.76296 -19.449094,-13.13394 -4.34579,-3.53729 -9.7531,-7.48319 -12.01623,-8.76868 -2.26314,-1.28548 -6.16054,-4.29566 -8.66089,-6.68927 -2.50034,-2.39361 -8.82108,-7.992196 -14.04608,-12.441316 -5.225,-4.44912 -11.43728,-10.16508 -13.80506,-12.70214 -2.36778,-2.53705 -4.7171,-4.61282 -5.2207,-4.61282 -1.36976,0 -5.97424,-10.294841 -5.97424,-13.357394 0,-4.470504 3.94324,-11.427849 8.28791,-14.622954 7.129,-5.242727 8.56412,-5.145298 29.21209,1.983182 4.95,1.708932 16.2,4.855079 25,6.991437 8.800002,2.136359 23.425004,6.397701 32.500004,9.469649 10.82292,3.663632 20.01726,6.08325 26.72265,7.03244 18.74145,2.65298 41.29029,9.62644 45.50597,14.0732 1.44508,1.52429 3.41339,2.40217 5.4106,2.41316 1.72656,0.01 4.20156,0.91022 5.5,2.0016 1.29843,1.09137 5.45906,2.92853 9.24584,4.08257 9.57282,2.91735 25.81032,10.678966 39.64059,18.948436 6.42482,3.84157 12.37189,6.98467 13.21571,6.98467 0.84382,0 3.87434,1.60972 6.73449,3.57716 2.86016,1.96744 6.76721,3.83144 8.68235,4.14223 2.17519,0.35298 4.08432,1.48421 5.08671,3.01405 0.88256,1.34695 8.49197,7.58669 16.9098,13.8661 8.41784,6.27941 24.57741,18.83096 35.91016,27.89234 11.33275,9.06138 22.81678,17.90842 25.52006,19.66009 2.70329,1.75167 4.91507,3.71751 4.91507,4.36852 0,2.13753 13.96281,17.36997 25.15472,27.44201 18.93283,17.0384 32.79498,25.29807 53.23631,31.72049 6.10993,1.91966 17.63397,5.69278 25.60897,8.3847 7.975,2.69193 24.175,7.87226 36,11.51186 62.31091,19.17859 79.57901,24.67518 82.99575,26.41827 2.61491,1.33403 4.85019,1.73915 7.35399,1.33284 2.26931,-0.36826 4.80669,-0.0183 6.87372,0.94815 4.13133,1.93153 6.68454,2.62528 31.77654,8.63415 11.275,2.70006 23.5373,6.05397 27.24955,7.45313 3.71225,1.39916 14.51225,4.19032 24,6.20257 9.48775,2.01225 19.50045,4.51587 22.25045,5.56359 2.75,1.04772 10.175,2.8341 16.5,3.96974 6.325,1.13563 16.45,3.11728 22.5,4.40366 6.05,1.28638 15.275,2.83605 20.5,3.4437 5.225,0.60766 11.76957,1.75319 14.5435,2.54564 5.90573,1.68713 21.57619,4.28295 32.976,5.46249 4.41073,0.45638 13.18573,2.40873 19.5,4.33856 6.31428,1.92982 13.5055,3.77623 15.9805,4.10312 2.475,0.32689 8.72937,1.36593 13.8986,2.30897 l 9.39859,1.71462 3.60141,-4.08091 c 1.98077,-2.24449 5.57957,-7.62712 7.99732,-11.96138 2.41776,-4.33426 5.53945,-9.11797 6.93709,-10.63047 2.69168,-2.91287 6.87691,-3.64008 8.96012,-1.55687 0.92418,0.92418 1.86182,0.69876 4.15951,-1 3.58329,-2.64924 4.03775,-2.69859 4.08063,-0.44313 0.0599,3.14901 3.56158,-2.14731 6.4947,-9.82318 2.07737,-5.43643 3.3058,-7.29714 5.33538,-8.08156 3.41419,-1.31955 11.32789,-0.25491 12.40445,1.66879 0.6321,1.1295 1.83491,1.33325 4.93977,0.83677 l 4.10421,-0.65629 -0.57878,7.65273 c -0.31832,4.20901 -0.39762,7.65274 -0.17621,7.65274 0.22141,0 1.32085,-1.8 2.44321,-4 1.12236,-2.2 2.23175,-4 2.46533,-4 0.23357,0 2.41051,2.10179 4.83764,4.67064 l 4.41296,4.67064 5.80673,-4.73013 c 8.31717,-6.77511 10.90544,-7.90624 16.94518,-7.40537 7.13216,0.59145 14.04046,4.19671 20.64932,10.77627 4.4588,4.43904 5.9636,6.78404 7.2971,11.37127 1.7569,6.04338 8.2343,14.37955 9.244,11.89668 0.6251,-1.53714 5.3417,-1.67345 5.3417,-0.15437 0,0.6026 -0.8913,2.34741 -1.9808,3.87735 -2.2735,3.19289 -5.0192,12.89572 -5.0192,17.73712 0,1.89343 0.8027,4.09263 1.8911,5.18102 2.1644,2.16437 15.0844,5.42631 30.3202,7.65502 5.6588,0.82777 14.6987,2.40356 20.0887,3.50177 5.39,1.0982 17.3725,2.66168 26.6278,3.47438 9.2746,0.8144 18.4395,2.15106 20.4186,2.97796 3.7932,1.58492 35.9563,6.92327 48.6536,8.07541 4.125,0.37429 8.1128,1.16977 8.8619,1.76773 0.749,0.59795 2.7865,0.96444 4.5277,0.81443 7.8806,-0.67895 49.6523,5.77826 54.8853,8.48435 2.0791,1.07514 7.6687,1.86033 17.2786,2.42717 17.1259,1.01018 29.9991,2.99463 44.8394,6.91215 6.1089,1.61263 15.3821,3.65655 20.6071,4.54204 11.3447,1.92261 33.2904,6.4089 48.5,9.91471 6.05,1.39452 17.3,3.24635 25,4.11519 16.7883,1.89433 36.1596,6.14322 54.5,11.95405 15.2103,4.81912 15.9265,5.00223 27.3653,6.99699 22.1017,3.85422 75.6805,22.99158 88.1347,31.4801 2.2,1.49947 5.641,3.26091 7.6467,3.91432 2.0056,0.6534 9.168,4.74914 15.9163,9.10164 6.7484,4.35251 13.5719,8.19964 15.1633,8.54918 1.6929,0.37182 3.2424,1.55285 3.7341,2.84615 0.4839,1.27281 2.6856,2.97556 5.19,4.01381 10.2424,4.24619 13.8496,5.97494 13.8496,6.6374 0,0.38786 3.1298,2.34988 6.9552,4.36004 13.0592,6.86244 36.2432,25.66061 42.0418,34.08857 1.9139,2.78176 4.6219,5.14558 7.2758,6.35113 6.0376,2.74264 16.936,12.15896 21.8665,18.89289 2.3197,3.16816 5.8848,7.67653 7.9225,10.0186 5.4141,6.22267 7.4034,16.42725 4.9348,25.31371 -1.7429,6.27388 -19.5221,24.71239 -30.8828,32.02797 -3.6055,2.32174 -5.1183,2.72602 -8.5,2.27153 -3.2443,-0.43604 -5.9631,0.19528 -12.8637,2.9871 -4.8125,1.947 -11.2061,3.99405 -14.2081,4.549 -3.002,0.55495 -7.1646,1.86762 -9.2501,2.91705 -2.0855,1.04942 -7.8419,3.37551 -12.7919,5.16908 -4.95,1.79356 -15.075,6.0825 -22.5,9.53097 -11.2271,5.21431 -14.6965,6.37034 -20.6063,6.86624 -3.9085,0.32797 -11.5585,1.9803 -17,3.67186 -5.4415,1.69156 -12.4979,3.1973 -15.6807,3.34609 -4.9223,0.23011 -6.2671,0.73416 -9,3.37343 -4.7989,4.63446 -16,9.58132 -19.9943,8.83025 -10.0518,-1.89009 -9.9859,-1.8975 -20.3693,2.29192 -5.5828,2.25253 -10.9079,4.0955 -11.8334,4.0955 -0.9256,0 -5.0792,1.35998 -9.2304,3.02218 -4.1511,1.66221 -10.7511,3.4716 -14.6666,4.02088 -4.5372,0.6365 -9.839,2.32015 -14.619,4.64243 -6.8943,3.34946 -8.3272,3.66936 -17.7428,3.96108 -9.1492,0.28347 -10.9063,0.65232 -16.4582,3.45491 -5.8963,2.97645 -15.2173,5.30588 -26.299,6.57246 -2.75,0.31431 -5.6876,1.17061 -6.528,1.90289 -2.272,1.97961 -21.3201,9.32893 -28.8822,11.14361 -13.6675,3.2798 -17.0125,4.34516 -18.5873,5.91992 -1.0612,1.06116 -4.5615,1.91827 -10.1451,2.48423 -9.7903,0.99235 -18.2266,3.0077 -24.4933,5.85127 -2.4003,1.08912 -6.4723,1.9901 -9.049,2.00218 -5.1002,0.0239 -9.845,1.46009 -11.0166,3.33452 -0.5143,0.823 -1.2529,0.46209 -2.4064,-1.17597 -1.4267,-2.02592 -2.2504,-2.28481 -5.768,-1.81299 -2.545,0.34136 -4.7842,1.39087 -5.8955,2.76324 -2.4731,3.05413 -10.1549,3.77831 -14.7689,1.3923 -2.3054,-1.19217 -3.4909,-1.38548 -3.749,-0.61132 -0.2075,0.6227 -1.2133,1.13218 -2.235,1.13218 -1.0217,0 -2.1358,0.45 -2.4757,1 -0.6508,1.05294 0.5264,1.34075 4.25,1.03913 1.7629,-0.1428 2.25,0.3409 2.25,2.23432 0,3.32288 -3.3112,6.02458 -7.5647,6.17229 -1.953,0.0678 -3.8624,0.55778 -4.2431,1.08879 -0.7987,1.114 -16.9493,6.55591 -19.1922,6.46677 -0.825,-0.0328 -4.65,-1.34434 -8.5,-2.91457 -3.85,-1.57022 -7.3375,-2.65554 -7.75,-2.41182 -0.4125,0.24372 -0.75,1.55569 -0.75,2.91549 0,1.3598 -0.6579,2.72483 -1.462,3.0334 -1.3874,0.53239 -19.7447,-1.11513 -25.7028,-2.30676 -2.3405,-0.4681 -2.9543,-0.1341 -3.7893,2.06219 -0.548,1.44142 -1.6613,2.62077 -2.474,2.62077 -0.8127,0 -2.9242,1.8 -4.6921,4 -3.9379,4.9002 -8.3333,5.56753 -9.8798,1.5 -0.9216,-2.42405 -2.3312,-2.96849 -6.5,-2.51067 -5.4454,0.59802 -15.7194,9.11551 -17.4988,14.50696 -0.9968,3.02032 -1.9753,3.67451 -10.3507,6.91969 -5.0874,1.97121 -10.69,3.58402 -12.4502,3.58402 -1.867,0 -4.0335,0.83324 -5.2003,2 -1.7708,1.77081 -3.3333,2 -13.6353,2 -11.1265,0 -11.7367,0.10933 -13.9523,2.5 -1.8732,2.0212 -3.2697,2.5 -7.2921,2.5 -4.0258,0 -5.3266,0.44676 -6.8167,2.34119 -1.0129,1.28765 -2.816,2.86265 -4.0069,3.5 -2.9467,1.57703 -12.0108,1.51119 -12.5529,-0.0912 -0.2697,-0.79698 -1.9318,0.10905 -4.5863,2.5 -4.4703,4.02656 -7.4348,4.87949 -6.9513,2 0.2452,-1.46051 -0.4506,-1.7363 -4.2062,-1.66719 -2.475,0.0456 -5.9495,0.70179 -7.7211,1.45832 -2.862,1.22216 -4.1598,1.12931 -11.6409,-0.83281 -13.83829,-3.62946 -22.85642,-2.44211 -32.28891,4.25125 -2.66698,1.89251 -6.56504,4.66697 -8.66236,6.16546 l -3.8133,2.72453 -4.6867,-1.67973 c -6.00616,-2.15263 -9.4112,-2.11837 -12.17858,0.12252 -2.00418,1.62289 -2.06193,1.9181 -0.61078,3.12244 2.2604,1.87597 1.99164,5.04852 -0.77226,9.11596 -1.90977,2.81048 -3.73538,3.93318 -9.32094,5.73213 -8.9018,2.86702 -10.53619,2.87448 -10.12368,0.0462 0.21609,-1.48158 1.31002,-2.44611 3.37885,-2.97918 3.28493,-0.84642 11.79906,-7.71903 9.64854,-7.7883 -0.71069,-0.0229 -4.53569,0.63255 -8.5,1.45654 -7.11006,1.47785 -13.82985,4.33663 -19.3718,8.24128 -1.55982,1.09899 -3.80288,2.29803 -4.98457,2.66454 -3.96456,1.22963 -9.97804,6.31678 -13.1783,11.14828 -2.82472,4.26455 -3.17317,5.579 -3.17317,11.96995 0,3.94863 0.51123,8.70898 1.13606,10.57856 2.25295,6.74104 9.19548,11.846 20.78738,15.2853 2.9829,0.88502 6.26292,2.51021 7.28896,3.61153 1.02603,1.10131 3.1163,2.00239 4.64505,2.00239 4.12164,0 11.73729,2.47999 21.5804,7.02752 5.38989,2.49013 29.36084,10.20076 62.40671,20.0741 90.0357,26.90052 93.5979,27.99632 94.2048,28.97832 0.3233,0.523 3.7069,1.6005 7.5192,2.3943 9.4949,1.9772 33.3827,8.19735 35.8874,9.34475 1.1242,0.515 6.769,2.3381 12.544,4.0513 5.775,1.7132 13.875,4.2926 18,5.7321 4.125,1.4394 9.9508,3.4738 12.9461,4.5209 2.9954,1.0471 6.489,2.5871 7.7636,3.4222 1.2746,0.8352 4.8989,2.3695 8.0539,3.4096 3.155,1.0401 7.7614,2.6603 10.2364,3.6006 2.475,0.9402 6.075,2.0647 8,2.4988 3.6725,0.8282 15.3824,5.1057 20.5,7.4884 1.65,0.7683 5.6141,2.0677 8.8092,2.8877 7.7523,1.9896 22.4598,7.0369 26.1908,8.9882 1.65,0.8629 4.2436,1.5718 5.7636,1.5751 2.4124,0.01 6.212,1.4818 7.7364,3.0062 0.275,0.275 1.175,0.6482 2,0.8293 0.825,0.1811 4.425,1.7046 8,3.3856 3.575,1.6809 8.075,3.4068 10,3.8352 1.925,0.4284 4.5741,1.0284 5.887,1.3333 1.3128,0.305 3.1482,1.2435 4.0787,2.0856 0.9305,0.842 1.9805,1.531 2.3334,1.531 0.3529,0 3.0175,1.078 5.9213,2.3955 2.9038,1.3175 8.2046,3.1865 11.7796,4.1533 3.575,0.9668 7.2104,2.3638 8.0787,3.1045 0.8683,0.7407 2.7487,1.3467 4.1786,1.3467 1.4299,0 3.307,0.7071 4.1713,1.5714 0.8643,0.8643 1.5714,1.3052 1.5714,0.9797 0,-0.3255 1.7821,0.3174 3.9602,1.4286 2.1781,1.1112 4.6459,2.0203 5.484,2.0203 0.8382,0 4.3109,1.35 7.7171,3 3.4062,1.65 6.7784,3 7.4938,3 1.347,0 8.71,3.2524 18.4849,8.1653 3.102,1.5591 6.6044,2.8347 7.7832,2.8347 1.1788,0 4.3634,1.125 7.0768,2.5 2.7134,1.375 5.8163,2.5 6.8953,2.5 1.079,0 2.5676,0.6058 3.3081,1.3462 1.8781,1.8782 6.679,3.8631 18.2966,7.5649 5.5,1.7524 10.7814,3.6144 11.7364,4.1376 0.9551,0.5232 2.4657,0.9513 3.3571,0.9513 0.8913,0 4.6099,1.3994 8.2635,3.1099 3.6537,1.7104 8.893,4.1317 11.643,5.3805 8.7167,3.9587 11.9072,5.5116 15.4844,7.5369 1.9164,1.085 4.2789,1.9727 5.25,1.9727 0.9711,0 1.7656,0.3433 1.7656,0.7629 0,2.076 33.3356,16.2348 34.7927,14.7777 0.2311,-0.2311 1.3571,0.4527 2.5023,1.5196 1.1452,1.0669 2.7091,1.9398 3.4753,1.9398 0.7662,0 4.0902,1.5807 7.3865,3.5126 3.2964,1.9319 6.3579,3.2873 6.8034,3.012 1.1242,-0.6948 7.0398,1.4675 7.0398,2.5732 0,0.4962 1.125,0.9022 2.5,0.9022 1.375,0 2.5,0.45 2.5,1 0,0.55 0.675,1 1.5,1 0.825,0 1.5,0.3763 1.5,0.8363 0,0.4599 2.5875,2.0041 5.75,3.4314 3.1625,1.4273 6.875,3.262 8.25,4.0772 4.1195,2.4422 13.9488,6.6551 15.5273,6.6551 0.81,0 1.4727,0.45 1.4727,1 0,0.55 0.3375,0.896 0.75,0.7688 0.4125,-0.1271 2.8577,0.7986 5.4338,2.0572 2.5761,1.2586 5.6136,2.3584 6.75,2.444 1.1364,0.086 2.0662,0.4795 2.0662,0.8754 0,0.5876 2.1659,1.6236 5,2.3918 0.275,0.074 1.175,0.388 2,0.6966 2.2182,0.8298 14.419,5.2095 15,5.3846 3.7206,1.1212 5,1.7605 5,2.4982 0,0.4859 0.675,0.8834 1.5,0.8834 0.825,0 1.5,0.4388 1.5,0.975 0,0.8684 7.8946,5.025 9.544,5.025 0.76,0 5.8359,2.2179 12.9971,5.6791 2.7726,1.3401 5.8461,2.5547 6.83,2.6991 0.9838,0.1444 2.0904,0.7412 2.4589,1.3262 0.3685,0.585 2.92,2.1557 5.67,3.4905 2.75,1.3347 5.9,2.9241 7,3.5319 1.1,0.6078 3.8,1.8616 6,2.7862 2.2,0.9246 6.1256,2.7606 8.7236,4.0799 2.598,1.3193 8.1993,3.3523 12.4474,4.5177 4.2481,1.1655 8.4225,2.4956 9.2764,2.9558 3.5417,1.9087 9.0251,4.0108 16.8104,6.4443 5.9456,1.8585 10.1327,4.0004 14.9542,7.6497 3.683,2.7877 7.6253,5.4918 8.7605,6.009 1.1353,0.5173 3.1093,2.4658 4.3867,4.3301 1.2775,1.8643 3.3675,4.0742 4.6445,4.911 1.2771,0.8368 3.3171,3.6742 4.5333,6.3054 1.2163,2.6313 2.7809,5.9091 3.477,7.2841 0.6961,1.375 2.0051,6.1 2.9088,10.5 1.376,6.6992 1.4397,8.6911 0.3919,12.25 -0.6882,2.3375 -1.6031,4.25 -2.033,4.25 -0.4299,0 -0.7817,0.5671 -0.7817,1.2602 0,0.6931 -1.125,2.4735 -2.5,3.9564 -1.375,1.4829 -2.5,3.0816 -2.5,3.5527 0,1.0551 -4.688,5.2755 -7.7946,7.017 -14.7564,8.2723 -12.2314,7.5954 -29.2054,7.8286 -8.525,0.117 -16.625,-0.012 -18,-0.2857 z m -678.6,-492.49112 c -0.3419,-0.55309 -1.1501,-0.46049 -1.978,0.22662 -0.77,0.63902 -1.1399,1.58273 -0.822,2.09712 0.3419,0.55309 1.1501,0.46049 1.978,-0.22662 0.77,-0.63902 1.1399,-1.58273 0.822,-2.09712 z m -5.4,-3.96057 c 0,-1.20559 -2.7384,-1.10978 -3.5,0.12244 -1.0809,1.74886 0.5219,3.22667 2.089,1.92611 0.7761,-0.64405 1.411,-1.5659 1.411,-2.04855 z m 48.269,-14.5335 c -0.677,-0.27392 -2.027,-0.29059 -3,-0.0371 -0.9729,0.25354 -0.419,0.47766 1.231,0.49804 1.65,0.0204 2.4461,-0.18706 1.769,-0.46099 z m 13.731,-1.34406 c 1.1003,-0.71109 0.3833,-0.97345 -2.691,-0.98469 -2.305,-0.008 -4.4691,0.43469 -4.809,0.98469 -0.8007,1.29548 5.4954,1.29548 7.5,0 z m -82,-7.5 c 1.0318,-1.24323 0.9244,-1.49393 -0.6276,-1.46456 -1.0298,0.0195 -2.9974,0.67854 -4.3724,1.46456 l -2.5,1.42913 3.1276,0.0354 c 1.7201,0.0195 3.6877,-0.63956 4.3724,-1.46456 z m -85.12037,-29.09094 c 6.39123,-1.42502 16.34541,-4.10962 22.12041,-5.9658 5.775,-1.85617 18.825,-5.58336 29,-8.28264 18.39856,-4.88089 32.02576,-8.70063 58.20896,-16.31616 7.5399,-2.19303 18.0689,-4.87801 23.3977,-5.96662 5.3288,-1.08861 10.8598,-2.56823 12.291,-3.28805 1.4313,-0.71982 4.8194,-1.59929 7.5292,-1.95439 2.7098,-0.3551 5.6707,-1.3187 6.5797,-2.14134 0.909,-0.82263 6.7918,-2.41858 13.073,-3.54655 14.2822,-2.56478 27.4877,-5.88902 43.2027,-10.87554 6.7197,-2.13224 24.5927,-7.31761 39.7177,-11.52304 15.125,-4.20542 31.55,-8.93204 36.5,-10.50359 4.95,-1.57156 22.5641,-6.71814 39.1425,-11.43686 16.5783,-4.71873 33.8429,-9.9439 38.3657,-11.6115 4.5228,-1.6676 12.7394,-4.14942 18.2591,-5.51515 5.5198,-1.36573 17.2802,-5.34638 26.1343,-8.8459 8.8541,-3.49952 19.2484,-7.11575 23.0984,-8.03606 17.1274,-4.09415 39.7924,-12.52101 57.9539,-21.54723 9.6532,-4.7976 9.8703,-4.9789 7.1849,-5.99986 -1.5229,-0.57903 -3.3802,-1.05278 -4.1273,-1.05278 -2.2771,0 1.2554,-5.88591 4.8542,-8.08796 3.3427,-2.04541 9.4706,-4.42094 13.7331,-5.3238 1.4294,-0.30275 6.0164,-3.04629 10.1935,-6.09674 4.177,-3.05046 9.3075,-6.24727 11.4011,-7.10403 4.1087,-1.68138 10.553,-5.59293 27.8954,-16.93208 6.0989,-3.98766 12.879,-8.16355 15.0669,-9.27975 4.2283,-2.1571 7.0143,-4.839 6.0395,-5.81381 -0.3244,-0.32441 -1.7993,0.36146 -3.2774,1.52417 -5.9365,4.66966 -5.9,1.60946 0.082,-6.886 2.475,-3.51481 4.5,-7.18015 4.5,-8.1452 0,-1.35158 -2.5411,-2.57612 -11.0626,-5.33092 -18.7724,-6.06871 -29.893,-8.02272 -31.4374,-5.52388 -1.1319,1.83137 -2.5,1.03158 -2.5,-1.46146 0,-3.13665 -2.9314,-3.97938 -21.0702,-6.05723 -15.0971,-1.72941 -21.4343,-2.73378 -34.4298,-5.45669 -4.95,-1.03716 -12.5746,-2.37458 -16.9436,-2.97204 -4.3689,-0.59746 -10.4439,-1.97224 -13.5,-3.05506 -3.056,-1.08282 -11.1814,-2.89431 -18.0564,-4.02553 -6.875,-1.13122 -18.35,-3.14772 -25.5,-4.4811 -7.15,-1.33338 -23.125,-3.81235 -35.5,-5.50883 -12.375,-1.69647 -25.425,-3.7628 -29,-4.59185 -11.1198,-2.57867 -16.052,-3.38513 -30.3582,-4.96378 -7.622,-0.84108 -15.497,-2.1425 -17.5,-2.89206 -2.003,-0.74955 -7.8076,-1.62175 -12.8991,-1.93821 -5.0914,-0.31646 -10.8839,-1.25506 -12.8721,-2.08577 -1.9882,-0.83071 -4.6283,-1.51039 -5.867,-1.51039 -1.2387,0 -4.2191,-0.69397 -6.6231,-1.54216 -2.404,-0.84819 -9.0981,-1.98947 -14.8757,-2.53618 -5.7776,-0.54671 -12.0798,-1.64536 -14.0048,-2.44144 -1.925,-0.79609 -8.675,-1.89774 -15,-2.44811 -7.7447,-0.67391 -14.5861,-1.98546 -20.9506,-4.01639 -9.8848,-3.15424 -21.2604,-4.10137 -22.6307,-1.88423 -0.9827,1.59002 -21.8665,0.5281 -31.4187,-1.5976 -9.4173,-2.09568 -26.8934,-6.73335 -38,-10.08415 -4.675,-1.41042 -12.1,-3.00682 -16.5,-3.54755 -4.4,-0.54074 -11.15,-1.47595 -15,-2.07824 -14.0609,-2.19971 -13.1908,-2.22547 -14.9388,0.44231 -0.8882,1.35549 -2.29706,6.6876 -3.13106,11.84913 -0.83389,5.16154 -2.5825,11.71559 -3.88575,14.56456 -3.36105,7.34738 -4.91946,15.16842 -4.065,20.40056 0.39697,2.43072 0.76058,7.01377 0.80804,10.18457 l 0.0863,5.76507 3.37449,-3.26507 c 1.85597,-1.7958 3.14642,-2.59008 2.86771,-1.76508 -0.27873,0.825 -1.44499,4.74438 -2.59169,8.70974 -2.21374,7.65528 -3.30443,9.1325 -5.43645,7.36308 -1.05768,-0.8778 -1.42809,-0.18159 -1.83793,3.45449 -0.28231,2.50462 -1.30712,5.43103 -2.27737,6.50314 -1.03486,1.14351 -1.94845,4.12366 -2.21009,7.20942 -0.24531,2.89307 -1.49295,8.41013 -2.77254,12.26013 -1.27958,3.85 -3.25709,12.625 -4.39446,19.5 -2.23084,13.48465 -3.36495,17.89511 -7.97137,31 -3.11545,8.86321 -6.32449,23.92358 -7.96202,37.36659 -0.60472,4.96443 -1.67296,8.83811 -2.89557,10.5 -1.06553,1.44838 -2.2371,3.83968 -2.60349,5.31401 -0.69618,2.80136 0.71211,7.8151 2.50667,8.9242 1.61342,0.99715 0.18648,4.14867 -5.24277,11.57908 -5.84703,8.00218 -6.5761,10.27274 -7.90231,24.61042 -0.60017,6.48855 -1.9869,13.6686 -3.47644,18 -3.27315,9.51797 -5.0876,17.75587 -6.98626,31.71883 -1.47056,10.81467 -2.36786,15.06139 -4.06463,19.23687 -0.89427,2.20065 -1.41898,2.23629 12.38243,-0.84094 z m 20.61604,-14.41612 c -0.74606,-1.20716 1.70221,-2.29497 4.11309,-1.82751 0.94905,0.18401 1.91284,0.89707 2.14175,1.58457 0.50774,1.52495 -5.32255,1.7514 -6.25484,0.24294 z m 63.50433,-16.00825 c -1.3333,-0.87528 -1.3333,-1.0941 0,-1.96938 0.825,-0.54158 2.4,-0.98468 3.5,-0.98468 1.1,0 2.675,0.4431 3.5,0.98468 1.3333,0.87528 1.3333,1.0941 0,1.96938 -0.825,0.54158 -2.4,0.98468 -3.5,0.98468 -1.1,0 -2.675,-0.4431 -3.5,-0.98468 z m 30.4411,-9.51649 c 1.0677,-0.80751 2.8677,-1.45389 4,-1.4364 2.0253,0.0313 2.0272,0.0557 0.1178,1.5 -1.0677,0.80751 -2.8677,1.45389 -4,1.4364 -2.0253,-0.0313 -2.0272,-0.0557 -0.1178,-1.5 z m 127.5589,27.5318 c 0,-1.26441 -2.0435,-1.26441 -4,0 -1.1689,0.75538 -0.8929,0.97275 1.25,0.98469 1.5125,0.008 2.75,-0.43469 2.75,-0.98469 z m 170.471,-19 c 0.7191,0 2.3698,-0.88503 3.6682,-1.96673 l 2.3608,-1.96673 -2.6942,-0.0333 c -1.5448,-0.0191 -3.8913,1.07082 -5.5,2.55461 -1.9414,1.79057 -2.2414,2.40676 -0.974,2 1.0075,-0.32333 2.4201,-0.58788 3.1392,-0.58788 z M 773.96429,706.23674 c 1.47229,-3.08742 8.68691,-32.91206 14.59574,-60.33759 1.00723,-4.675 2.74875,-12.325 3.87004,-17 1.12129,-4.675 3.01829,-13 4.21556,-18.5 1.19727,-5.5 3.64934,-14.725 5.44906,-20.5 1.79971,-5.775 4.49447,-16.125 5.98836,-23 3.59979,-16.56658 8.47784,-32.5249 14.98246,-49.01447 3.40262,-8.6258 6.29817,-18.21179 8.00461,-26.5 3.86598,-18.77712 6.41081,-25.89966 9.40503,-26.32302 3.09863,-0.43813 4.28804,1.48429 3.61169,5.83749 -0.52323,3.36764 -0.48153,3.42437 1.10263,1.5 0.90553,-1.1 4.09666,-7.0937 7.09141,-13.31932 8.98435,-18.67712 10.01667,-23.03655 6.05736,-25.57993 -3.61746,-2.32377 -19.16335,-6.11985 -51.25,-12.51449 -30.46789,-6.07204 -91.42539,-20.81682 -106,-25.63994 -7.38509,-2.44393 -28.97556,-8.31233 -44.5,-12.09534 -15.0768,-3.67393 -53.93323,-15.59691 -65.71774,-20.16529 -4.51976,-1.75213 -9.31537,-3.18569 -10.65691,-3.18569 -1.34154,0 -7.31856,-2.0757 -13.28226,-4.61267 -8.94663,-3.80592 -11.85308,-4.59524 -16.61776,-4.51297 -4.45899,0.077 -8.11658,-0.79084 -16.05358,-3.80905 -16.08448,-6.11645 -26.67175,-8.48843 -26.67175,-5.97557 0,0.59936 2.23151,3.59344 4.9589,6.65351 2.7274,3.06007 5.71982,7.18219 6.64983,9.16026 0.93,1.97807 5.2235,7.22721 9.54109,11.66476 4.77937,4.91214 7.85018,8.89508 7.85018,10.18191 0,1.19113 1.26629,3.01531 2.90132,4.17955 1.59573,1.13626 4.58764,4.60648 6.6487,7.71159 2.06106,3.10512 6.85667,9.05659 10.65691,13.22549 4.63618,5.08593 6.75554,8.16868 6.4415,9.36959 -0.28324,1.08311 0.2847,2.19263 1.43843,2.81009 1.04856,0.56117 4.64073,5.08674 7.98261,10.05682 3.34188,4.97009 7.21234,10.01756 8.60102,11.21661 1.38869,1.19904 3.44455,3.98008 4.56859,6.18008 1.12403,2.2 3.97271,6.15017 6.33038,8.77815 5.50221,6.13304 20.44189,25.77737 27.92729,36.72185 3.19743,4.675 7.02817,9.7559 8.51275,11.29089 1.48459,1.53499 4.36269,5.63525 6.39579,9.11169 4.37825,7.48646 7.91082,11.06604 14.34821,14.53913 3.86485,2.08517 4.83937,3.16748 5.2465,5.82685 0.35034,2.28846 1.43417,3.8316 3.62102,5.1556 4.23043,2.56125 10.00562,12.37588 11.79451,20.04417 1.68832,7.23719 9.41697,20.77397 14.33447,25.10691 1.7875,1.57501 3.25,3.76157 3.25,4.85902 0,1.09746 0.9,2.47704 2,3.06574 1.14105,0.61067 2,2.09382 2,3.4534 0,4.05331 1.06913,5.5466 3.97113,5.5466 2.34533,0 3.01314,0.67028 4.47094,4.48749 3.88725,10.17862 23.31928,39.61942 33.50962,50.76927 3.13679,3.43215 4.84482,6.10995 4.48888,7.03752 -0.81133,2.1143 4.9517,13.08377 9.47748,18.03964 2.0925,2.29134 4.32104,5.7602 4.95231,7.70857 1.27117,3.92334 10.91375,18.94796 14.84582,23.13207 3.0408,3.23571 4.42264,2.85456 6.65987,-1.83697 z m 68.71376,-248.72938 c -0.67445,-0.81266 -1.08307,-2.96946 -0.90804,-4.79289 0.26731,-2.78481 0.71827,-3.31532 2.81823,-3.31532 2.29517,0 2.5,0.36758 2.5,4.4863 0,4.82269 -2.03001,6.48986 -4.41019,3.62191 z m 616.43715,171.43546 c -0.3251,-0.52598 -1.2516,-0.70283 -2.059,-0.39301 -2.0671,0.79323 -1.8235,1.34934 0.591,1.34934 1.1325,0 1.7931,-0.43035 1.468,-0.95633 z m 21.0716,-7.61503 c 7.6458,-3.61425 16.1651,-7.64902 18.9319,-8.96615 4.9226,-2.34346 11.9478,-8.46249 9.7156,-8.46249 -0.6204,0 -1.4124,0.46007 -1.7599,1.02238 -1.5582,2.52114 -21.9374,10.97762 -26.455,10.97762 -1.0785,0 -2.4492,-0.9126 -3.0462,-2.02801 -1.4885,-2.78128 -3.2391,-1.40556 -2.4991,1.96387 0.6821,3.10539 -0.069,3.95232 -6.5369,7.37273 -4.4019,2.32776 -6.2579,4.69141 -3.6838,4.69141 0.7876,0 7.6876,-2.95711 15.3334,-6.57136 z M 933.38824,352.69915 c 1.59558,-1.59558 1.51921,-2.8 -0.17756,-2.8 -1.69602,0 -3.84836,2.44075 -2.9471,3.34201 0.95524,0.95524 1.76848,0.81417 3.12466,-0.54201 z m -694.3,-199.31023 c -11.93775,-10.3873 -22.97167,-17.93432 -24.6783,-16.87956 -1.55835,0.96311 -0.81638,2.3898 1.24286,2.3898 1.13551,0 3.27301,1.43813 4.75,3.19585 2.68042,3.18989 19.70718,14.81746 21.65656,14.78927 0.56588,-0.008 -0.77112,-1.58109 -2.97112,-3.49536 z m 755.5,705.58355 c 0,-1.43109 0.64223,-2.07332 2.07332,-2.07332 1.43108,0 1.96958,0.53852 1.73848,1.73852 -0.502,2.60673 -3.8118,2.89745 -3.8118,0.3348 z m 146.18886,-36.81571 c 0.3909,-2.0296 4.3918,-4.15304 9.3373,-4.95557 3.0297,-0.49166 3.4738,-0.29857 3.4738,1.51041 0,2.97334 -3.7543,5.18755 -8.7958,5.18755 -3.5981,0 -4.2928,-0.30144 -4.0153,-1.74239 z m 30.8111,-12.22243 c 0,-1.08065 0.9569,-2.47694 2.1265,-3.10288 2.83,-1.51457 6.8735,0.27746 6.8735,3.04626 0,1.72911 -0.6508,2.02144 -4.5,2.02144 -3.8065,0 -4.5,-0.30281 -4.5,-1.96482 z M 1026.1208,367.95194 c -0.8792,-1.42264 0.242,-3.05279 2.0997,-3.05279 0.8762,0 1.3781,0.70256 1.191,1.66713 -0.3895,2.00847 -2.3861,2.84922 -3.2907,1.38566 z"
       id="path22" />
  </g>
</svg>
