<?xml version="1.0" encoding="utf-8"?>
<!-- Generator: Adobe Illustrator 24.3.0, SVG Export Plug-In . SVG Version: 6.00 Build 0)  -->
<svg version="1.1"
	 id="svg94" inkscape:version="1.0.1 (3bc2e813f5, 2020-09-07)" sodipodi:docname="ahsh.svg" xmlns:cc="http://creativecommons.org/ns#" xmlns:dc="http://purl.org/dc/elements/1.1/" xmlns:inkscape="http://www.inkscape.org/namespaces/inkscape" xmlns:rdf="http://www.w3.org/1999/02/22-rdf-syntax-ns#" xmlns:sodipodi="http://sodipodi.sourceforge.net/DTD/sodipodi-0.dtd" xmlns:svg="http://www.w3.org/2000/svg"
	 xmlns="http://www.w3.org/2000/svg" xmlns:xlink="http://www.w3.org/1999/xlink" x="0px" y="0px" viewBox="0 0 816.1 562.7"
	 style="enable-background:new 0 0 816.1 562.7;" xml:space="preserve">
<g id="g102" inkscape:groupmode="layer" inkscape:label="Image">
	<path id="path106" d="M359.4,425.8c-2.8-0.6-3.9-0.9-5-1.5c-0.6-0.3-1.8-0.9-2.9-1.3c-1.5-0.6-2.3-1.2-4.1-2.8
		c-1.2-1.1-2.6-2.6-3.1-3.3c-0.5-0.7-1.1-1.4-1.2-1.6c-0.5-0.5,0.3-6.6,1-8c0.8-1.7,2.5-4.1,2.8-4.2c0.1,0,0.3-0.2,0.3-0.4
		c0.1-0.4,1.4-1.9,1.7-2c0.1,0,0.4-0.3,0.5-0.7s0.6-0.8,1-1.1s0.9-0.8,1.2-1.3s0.8-0.8,1-0.9c0.3,0,0.5-0.2,0.5-0.4
		c0-0.2,0.2-0.4,0.4-0.4s0.4-0.3,0.6-0.5c0.4-0.6,2.2-2,2.7-2.1c0.3-0.1,0.5-0.2,0.5-0.3c0-0.2,4.9-4,5.8-4.6c0.4-0.2,1-0.7,1.3-1
		c0.3-0.3,0.7-0.6,0.9-0.6s0.5-0.3,0.8-0.5s0.8-0.5,1.1-0.6c0.3-0.1,0.9-0.4,1.3-0.7c0.4-0.3,1.4-0.9,2.3-1.5c0.9-0.5,1.6-1,1.6-1.1
		s0.3-0.3,0.7-0.4c0.3-0.1,0.9-0.5,1.2-0.7c0.3-0.2,1-0.6,1.5-0.9s1.7-0.9,2.6-1.4s2-1.1,2.5-1.3c0.4-0.2,0.8-0.4,0.8-0.4
		c0,0,0.2-0.2,0.5-0.3c0.2-0.1,0.8-0.4,1.2-0.6c2.5-1.3,12.4-4.8,12.3-4.4c0,0.1,0.9-0.1,2-0.5c0.3-0.1,0.5-0.1,0.5-0.1
		c0,0.1,0.2,0,0.5,0c0.6-0.2,1.8-0.4,2.6-0.5c1.4-0.1,2.3-0.3,2.7-0.4c0.6-0.1,2-0.2,7.5-0.3c4.3-0.1,8.3,0.3,10.6,0.9
		c1.9,0.5,3.6,1.5,3.9,2.4c0.1,0.4,0,2.2-0.3,4.1l-0.5,3.4l-1.1,0.6c-1.7,1-4.7,1.9-7.8,2.3c-1.6,0.2-4.1,0.6-5.4,0.9
		c-2.6,0.6-12.7,4.1-12.8,4.5c0,0.1-0.5,0.4-1,0.6c-1.6,0.6-6.3,3-6.4,3.3c0,0,0.9-0.1,2-0.2c3.2-0.4,4.4-0.5,8-0.6
		c4.5-0.1,5.3,0.1,6.5,0.8l1,0.6l-0.7,5c-0.7,5.6-0.8,5.3,1.6,6.9c2.2,1.5,3.4,2,5.5,2.2c1,0.1,2.4,0.2,3.1,0.1
		c0.7-0.1,1.5-0.1,1.8-0.1c0.3,0,0.9,0,1.4-0.1c1.3-0.3,9.6-3.4,9.7-3.6c0-0.2,3.5-1.9,4.8-2.4c0.5-0.2,1.2-0.5,1.4-0.7
		c0.4-0.3,3-1.7,4.6-2.4c0.3-0.1,0.8-0.5,1.2-0.7c0.4-0.3,1.5-1,2.6-1.6c2.5-1.4,4.5-3.1,5.1-4.3c0.3-0.5,0.4-1,0.3-1.1
		c-0.1-0.1,0-0.1,0.2-0.1c0.2,0,0.6-0.5,0.9-1.1c0.3-0.6,0.8-1.4,1-1.6c0.5-0.6,1.5-2.7,1.6-3.5c0-0.4,0.2-0.6,0.3-0.6
		c0.3,0,1.1-1.2,1.7-2.6c0.4-0.9,1.9-3.3,2.7-4.4c0.3-0.4,0.6-0.9,0.6-1.1s0.3-0.4,0.6-0.5c0.3-0.1,0.6-0.4,0.6-0.8
		c0.1-0.8,1.1-2.6,1.5-3c0.2-0.2,0.4-0.5,0.6-0.7s0.7-1,1.2-1.8s1.1-1.8,1.3-2.2s0.9-1.5,1.6-2.4c0.6-0.9,1.2-1.9,1.2-2
		s0.2-0.3,0.4-0.3c0.2,0,0.4-0.1,0.4-0.3c0-0.2,0.5-0.9,1-1.6c1.3-1.9,2.2-3.3,2.3-3.8c0-0.3,0.2-0.4,0.4-0.4c0.4,0,1-0.7,1.7-2.2
		c0.3-0.7,0.9-1.4,1.3-1.7s0.7-0.7,0.8-0.9c0-0.2,0.2-0.5,0.4-0.7c0.5-0.4,1.6-1.9,2-2.6c0.2-0.4,1-1.5,1.8-2.5
		c1.8-2.1,2.2-2.7,4.2-5.5c0.8-1.2,1.8-2.3,2.1-2.6c0.3-0.2,0.9-1,1.3-1.7c0.4-0.7,0.9-1.4,1.1-1.6c0.4-0.4,1.1-1.4,1.9-2.6
		c0.3-0.5,0.7-1,1-1c0.2-0.1,0.4-0.4,0.3-0.6c-0.1-0.3,0.1-0.4,0.3-0.4c0.2,0,0.4-0.1,0.4-0.3c0-0.2,0.2-0.4,0.5-0.5
		c0.2-0.1,0.5-0.5,0.7-0.9c0.1-0.4,0.5-0.9,0.8-1c0.3-0.1,0.5-0.3,0.6-0.5s0.3-0.5,0.6-0.7s0.6-0.6,0.6-0.7c0-0.2,0.4-0.6,0.8-1.1
		c0.4-0.4,0.7-0.8,0.6-0.9c-0.1-0.1,0.1-0.2,0.4-0.4s0.6-0.5,0.7-0.7c0-0.2,0.2-0.4,0.4-0.4c0.3,0,0.8-0.4,1.3-1.3
		c0.9-1.6,1.3-2.1,1.8-2.2c0.3-0.1,0.6-0.4,0.8-0.7c0.2-0.3,0.5-0.8,0.8-1.1c0.6-0.5,1.8-1.8,3.2-3.4c0.4-0.5,0.9-1,1.1-1.2
		c0.2-0.2,0.5-0.6,0.6-0.9c0.2-0.5,1.4-1.9,2.5-2.9c0.3-0.3,0.9-1,1.5-1.6c0.5-0.6,1.1-1.2,1.2-1.3c0.2-0.1,0.3-0.3,0.4-0.5
		c0-0.2,0.4-0.6,0.7-1c0.4-0.3,0.8-0.7,0.9-0.9c0.4-0.5,1.1-1.2,2.9-3.1c0.9-0.9,1.8-1.8,2-2s0.4-0.4,0.5-0.7s0.2-0.4,0.4-0.4
		c0.2,0,0.4-0.2,0.4-0.5s0.2-0.5,0.4-0.6c0.2,0,0.7-0.5,1.2-1.1c0.5-0.6,1.2-1.2,1.5-1.4c0.3-0.2,0.6-0.6,0.6-0.8
		c0-0.2,0.2-0.4,0.3-0.3c0.1,0,0.4-0.2,0.7-0.4c0.9-0.9,4-2.5,6.1-3.2c3.5-1.1,4.5-1.3,7-1.4c3-0.1,5.6,0.2,8.7,1
		c1.9,0.5,2.6,0.7,3.2,1.3c1.3,1,2.4,2.7,2.8,4.1c0.3,1.4-0.1,5-0.8,5.9c-0.2,0.3-0.8,1.7-1.2,3.1c-0.4,1.4-1,2.7-1.1,2.9
		s-0.6,0.7-0.9,1.1c-0.3,0.4-0.6,0.7-0.7,0.7c-0.1-0.1-0.2,0.2-0.2,0.6c0,0.4-0.3,0.9-0.8,1.4c-0.4,0.4-1.2,1.4-1.6,2.2
		c-0.4,0.8-0.9,1.5-1.1,1.6c-0.2,0-0.3,0.2-0.4,0.4s-0.2,0.4-0.4,0.6c-0.4,0.3-2.5,3.4-3,4.5c-0.2,0.4-0.5,0.7-0.6,0.8
		c-0.2,0-0.3,0.3-0.4,0.5c0,0.3-0.4,0.9-0.7,1.5s-0.8,1.4-1,1.9c-0.2,0.5-0.6,1-0.9,1.1s-0.5,0.4-0.6,0.7s-0.3,0.7-0.5,1
		c-0.2,0.3-0.7,0.9-1.1,1.4c-0.4,0.5-1.1,1.4-1.5,1.9s-0.9,1.1-0.9,1.4c0,0.2-0.2,0.5-0.4,0.5c-0.4,0.2-1.6,2.4-1.6,3.1
		c0,0.3-0.2,0.5-0.4,0.5s-0.5,0.2-0.6,0.6c-0.2,0.3-0.5,0.7-0.7,0.8s-0.4,0.3-0.5,0.5c-0.6,1.3-0.8,1.6-1.1,1.6
		c-0.2,0-0.4,0.2-0.4,0.6s-0.3,0.8-0.7,1.2c-0.3,0.3-0.8,0.9-1.1,1.3c-0.3,0.4-0.7,1-1,1.3c-0.2,0.3-0.5,0.8-0.6,1.1
		c-0.1,0.3-0.3,0.6-0.5,0.6c-0.2,0-0.5,0.5-0.7,0.9c-0.2,0.6-0.5,0.8-0.8,0.8c-0.3,0-0.5,0.2-0.6,0.8c-0.1,0.5-0.4,1-0.7,1.2
		c-0.3,0.1-0.6,0.5-0.6,0.7c0,0.2-0.3,0.6-0.6,0.9c-0.3,0.2-0.6,0.6-0.6,0.8c0,0.2-0.2,0.4-0.4,0.4c-0.2,0-0.4,0.2-0.4,0.5
		c0,0.3-0.3,0.6-0.5,0.7c-0.4,0.1-2,2.2-2.2,2.9c-0.1,0.3-0.4,0.5-0.6,0.5s-0.8,0.7-1.3,1.6c-0.5,0.8-1.1,1.6-1.3,1.7
		c-0.2,0.1-0.5,0.5-0.8,0.9c-0.7,1-1.8,2.2-2.1,2.2c-0.2,0-0.3,0.2-0.4,0.4c-0.1,0.5-1,1.7-1.6,2.1c-0.3,0.2-0.5,0.5-0.5,0.8
		c0,0.2-0.4,0.7-0.8,0.9c-0.8,0.5-2.9,2.9-2.9,3.5c0,0.2-0.4,0.5-0.8,0.6c-0.4,0.2-0.7,0.5-0.8,0.7s-0.2,0.4-0.4,0.4
		c-0.2,0-0.5,0.3-0.7,0.6c-0.2,0.4-0.5,0.8-0.6,0.9c-1.2,1-1.6,1.4-2.2,2.3c-0.6,0.9-1.3,1.6-2.6,2.5c-0.2,0.1-0.4,0.4-0.4,0.7
		c0,0.2-0.2,0.4-0.3,0.5c-0.4,0.1-1.3,1.5-1,1.5c0.1,0,0.8-0.4,1.6-0.9s1.7-1.1,2-1.2c0.4-0.2,1-0.5,1.3-0.7c0.9-0.5,4-1.1,6.6-1.3
		c1.9-0.1,2.8-0.1,5.6,0.2c5.1,0.6,7.7,1.4,8.7,2.8c1.5,2.1,0.6,8-1.4,9.3c-0.6,0.4-2.1,2.2-2.6,3.1c-0.2,0.3-0.4,0.6-0.5,0.6
		c-0.2,0-0.8,0.7-1.8,2.1c-0.3,0.4-0.7,0.9-1,1.1c-1.5,0.9-2.2,2.2-3,5.1c-0.4,1.6-0.7,3.1-0.6,3.3c0.1,0.3,0.4,0.4,1.5,0.4
		c1.1,0.1,1.7-0.1,3.4-0.7c3.6-1.4,6.8-2.8,7.4-3.1c0.3-0.2,1.1-0.6,1.7-0.8c3.5-1.6,4.3-2,5.6-2.9c0.6-0.4,1.2-0.7,1.4-0.8
		c0.1,0,0.3-0.1,0.3-0.2s0.3-0.3,0.7-0.3c0.4-0.1,0.7-0.2,0.7-0.4s0.3-0.3,0.5-0.4c0.3-0.1,1.1-0.5,1.7-1c0.7-0.4,1.4-0.9,1.6-1
		c2.7-1.7,4-2.6,7.4-5.1c0.8-0.6,1.8-1.3,2.2-1.5c0.4-0.2,1-0.7,1.3-1c0.5-0.6,3.1-2.3,3.7-2.4c0.1,0,0.5-0.3,0.8-0.6
		c0.3-0.3,0.7-0.6,0.8-0.6c0.1,0,0.3-0.1,0.3-0.3c0-0.2,0.3-0.4,0.6-0.5s0.5-0.3,0.6-0.4s0.2-0.3,0.4-0.5c0.4-0.3,3.7-3.1,7.3-6.1
		c0.4-0.3,0.8-0.6,0.9-0.5c0.1,0,0.2-0.1,0.1-0.2c-0.1-0.2,0.1-0.3,0.4-0.3c0.3,0,0.6-0.2,0.6-0.5c0-0.3,0.2-0.5,0.4-0.5
		s0.4-0.4,0.5-0.9c0.2-1,1.8-3.8,3.1-5.4c1-1.2,2.4-2,3.3-1.9c0.2,0,0.5-0.1,0.6-0.2c0.1-0.1,0.5-0.2,0.7-0.2c0.3,0,0.9,0,1.3-0.1
		c0.5-0.1,1.6-0.2,2.6-0.3c3.4-0.2,11,1,12.7,2c0.4,0.2,0.9,0.5,1.2,0.6c0.8,0.2,1.7,1.1,2,2.1c0.4,1.1-0.3,3.5-1.1,4.1
		c-0.3,0.3-0.6,0.6-0.7,0.7c0,0.1-0.3,0.4-0.6,0.6c-2.7,2-3.1,4.6-1.1,8.9c0.3,0.7,0.6,1.5,0.5,1.7s0.4,0.8,0.9,1.3
		c0.5,0.5,1.2,1.4,1.4,1.8c0.2,0.5,0.6,1,0.8,1.1c0.2,0.2,0.8,0.8,1.2,1.5c0.5,0.7,1.2,1.4,1.6,1.7s1,0.9,1.5,1.4
		c0.5,0.5,1.2,1.2,1.6,1.5c0.7,0.6,0.9,0.6,1.8,0.6c0.6,0,1.1-0.1,1.1-0.2c0-0.1,0.2-0.1,0.3-0.1c0.5,0.1,5.9-1.1,7.6-1.6
		c1.1-0.3,1.6-0.6,1.8-1.1c0.2-0.3,0.5-0.7,0.6-0.7c0.5-0.2,1-1,2.2-3.2c0.6-1.1,1.2-2,1.4-2.1s0.6-0.6,1-1c0.3-0.5,0.9-1.3,1.3-1.8
		c0.4-0.5,0.9-1.2,1.1-1.6c0.2-0.4,0.8-1.1,1.2-1.6s1.2-1.5,1.7-2.2c0.5-0.7,1-1.3,1.2-1.3c0.2,0,0.4-0.2,0.4-0.5
		c0-0.3,0.2-0.5,0.4-0.5s0.4-0.3,0.4-0.6s0.2-0.6,0.4-0.6c0.2,0,0.4-0.3,0.4-0.6s0.2-0.6,0.4-0.6c0.2,0,0.5-0.3,0.6-0.7
		c0.2-0.3,0.6-0.8,0.8-1.1c0.7-0.6,1.5-1.5,2.9-3.3c0.6-0.8,1.4-1.7,1.7-2c0.3-0.3,0.9-0.9,1.2-1.3c0.6-0.8,0.9-1,1.9-1.9
		c0.4-0.3,0.7-0.7,0.7-0.8c0.1-0.3,2.1-2.6,2.5-2.8c0.2-0.1,0.3-0.4,0.4-0.7c0-0.3,0.2-0.5,0.4-0.5c0.2,0,0.4-0.1,0.4-0.3
		c0-0.2,0.2-0.4,0.4-0.4c0.2,0,0.4-0.3,0.4-0.5c0-0.3,0.3-0.5,0.5-0.6c0.2-0.1,0.5-0.3,0.6-0.5c0.3-0.6,2-2.4,2.3-2.4
		c0.1,0,0.3-0.2,0.3-0.4c0-0.2,0.3-0.5,0.7-0.8c0.3-0.3,1.2-1.1,1.8-1.8c0.7-0.7,1.5-1.6,2-2c0.4-0.4,0.8-0.8,0.8-1.1
		c0-0.2,0.2-0.4,0.4-0.4c0.2,0,0.5-0.2,0.8-0.6c0.3-0.3,0.9-0.9,1.3-1.3c0.4-0.4,0.8-0.7,0.7-0.8c0-0.1,0.3-0.3,0.7-0.5
		c0.4-0.2,0.8-0.5,0.8-0.7s0.2-0.3,0.4-0.4c0.2,0,0.5-0.4,0.7-0.9c0.2-0.4,0.6-0.8,0.8-0.8s0.7-0.4,1-0.8s0.9-1,1.4-1.4
		s0.9-0.7,0.9-0.9c0.2-0.5,0.7-1.2,0.9-1.3c0.5-0.1,2.3-1.6,2.3-1.9c0-0.2,0.2-0.4,0.4-0.4s1-0.8,1.8-1.6c0.8-0.8,1.6-1.5,1.8-1.5
		c0.2,0,0.3-0.2,0.4-0.4s0.3-0.4,0.5-0.5c0.3-0.1,0.8-0.5,1.3-1c0.4-0.5,0.9-0.9,1-1s0.5-0.4,0.9-0.8c0.4-0.4,1.1-1.1,1.7-1.5
		s1.4-1.2,1.8-1.6c0.5-0.5,1-0.9,1.3-1.1c0.5-0.2,0.9-0.6,1.2-1.3c0.1-0.2,0.4-0.4,0.6-0.4c0.2,0,0.4-0.1,0.4-0.3
		c0-0.1,0.5-0.6,1-0.9c1.4-1.1,3.6-3,4.9-4.2c0.4-0.4,2-1.7,3.4-2.8c1.4-1.1,2.6-2.2,2.6-2.3c0-0.2,0.1-0.3,0.2-0.3
		c0.5,0.1,1.5-0.8,1.4-1.2c-0.1-0.2,0-0.4,0.2-0.3c0.2,0,0.5-0.1,0.8-0.3c0.4-0.4,1.2-0.9,1.5-1c0.1,0,0.5-0.3,0.9-0.7
		c0.4-0.3,0.9-0.8,1.2-1c0.3-0.2,0.6-0.6,0.6-0.7c0-0.1,0.4-0.4,0.9-0.6c0.5-0.2,1-0.6,1.2-0.9c0.2-0.4,0.6-0.7,0.8-0.7
		s0.5-0.1,0.5-0.2c0-0.1,0.4-0.4,0.9-0.7c0.5-0.3,0.9-0.6,1-0.9c0-0.2,0.5-0.6,1.1-0.8c0.6-0.2,1-0.5,0.9-0.6
		c-0.1-0.1,0.5-0.5,1.1-0.9c0.7-0.4,1.2-0.8,1.1-0.8s0.1-0.2,0.5-0.3c0.4-0.2,0.9-0.5,1-0.7c0.2-0.2,0.6-0.5,1-0.7
		c0.4-0.1,0.9-0.5,1.3-0.8c0.3-0.3,1.2-0.8,1.9-1.2c0.7-0.4,1.3-0.7,1.3-0.8c0-0.3,3.3-1.5,5.3-2c4.2-1.1,6.7-1.5,10.8-1.5
		c2.4,0,4.5,0.2,6.9,0.8c2.1,0.5,3.2,1,4.6,2.2c2.1,1.6,2.5,2.1,2.8,2.9c0.2,0.4,0.4,0.9,0.5,1s0.5,0.8,0.7,1.5s0.6,1.5,0.7,1.6
		c0.1,0.2,0.2,0.6,0.2,1c0,0.4,0.1,0.9,0.2,1.1c0.1,0.2,0.1,1.1-0.1,2.2c-0.2,1-0.4,2.3-0.4,3c-0.2,1.7-1.6,6.2-2.1,6.8
		c-0.2,0.3-0.9,1.6-1.5,2.9c-0.6,1.3-1.2,2.7-1.5,3.1c-0.2,0.4-0.4,0.8-0.3,0.8c0.1,0.1-1.5,2.9-2,3.4c-0.1,0.1-0.2,0.3-0.2,0.4
		c0,0.1-0.2,0.4-0.5,0.7c-0.3,0.3-0.7,0.8-0.9,1.1c-0.7,1.4-0.9,1.8-1.2,2.1c-0.4,0.4-1,1.5-1,2c0,0.2-0.2,0.5-0.3,0.6
		c-0.2,0.1-0.6,0.7-0.9,1.4c-0.3,0.7-0.9,1.3-1.2,1.4c-0.3,0.1-0.5,0.4-0.4,0.6c0.1,0.2,0,0.4-0.3,0.4c-0.4,0-1.3,1.5-1.3,2
		c0,0.1-0.2,0.3-0.5,0.5c-0.3,0.1-0.6,0.4-0.6,0.6c0,0.5-0.8,1.3-1.3,1.2c-0.2,0-0.3,0.1-0.3,0.3c0.1,0.3-0.5,1.1-1.8,2.3
		c-0.3,0.2-0.4,0.5-0.3,0.5c0.1,0.1-0.2,0.3-0.5,0.6c-0.6,0.4-2.3,2.5-2.9,3.6c-0.1,0.3-0.4,0.5-0.5,0.6s-0.5,0.4-0.8,0.7
		s-0.6,0.6-0.8,0.6s-0.4,0.2-0.6,0.5c-0.2,0.3-0.5,0.7-0.8,0.8c-0.3,0.2-0.8,0.7-1.2,1.1s-1.1,1.1-1.4,1.4c-0.4,0.3-0.7,0.6-0.7,0.7
		c0,0.1-0.2,0.2-0.3,0.2c-0.2,0-0.4,0.2-0.6,0.4c-0.2,0.3-0.6,0.8-1,1.1c-0.4,0.4-0.9,0.8-1.1,1.1c-0.2,0.2-0.4,0.5-0.6,0.5
		c-0.2,0-0.3,0.2-0.4,0.3c0,0.2-0.5,0.5-1,0.8c-0.5,0.3-0.8,0.6-0.7,0.6c0.1,0.1-0.1,0.2-0.4,0.4c-0.3,0.1-0.5,0.4-0.4,0.5
		s0.1,0.2-0.1,0.2s-0.9,0.5-1.7,1.1c-0.7,0.6-2,1.6-2.8,2.2c-0.8,0.6-1.4,1.2-1.4,1.3c0,0.1-0.3,0.2-0.5,0.4s-0.9,0.6-1.4,1.1
		c-0.5,0.5-1.3,1-1.7,1.2c-0.4,0.2-1.1,0.7-1.4,1c-0.9,1-2.5,2.1-3.7,2.6c-0.6,0.2-1.1,0.5-1.1,0.7c0,0.1-0.3,0.3-0.6,0.4
		c-0.3,0.1-0.5,0.3-0.6,0.4s-0.2,0.3-0.5,0.4c-0.5,0.2-1.3,0.7-1.6,1c-0.1,0.1-0.9,0.7-1.8,1.2c-0.8,0.5-1.8,1.1-2.1,1.4
		c-0.3,0.2-0.6,0.5-0.7,0.5c-0.1,0-0.7,0.4-1.4,0.7l-1.2,0.7l0.9,0.3c0.5,0.2,1.2,0.7,1.7,1.1l0.8,0.8l-1.3,8.2
		c-1.3,8.1-1.3,8.2-0.7,8.9c0.9,1,2.1,1.8,3.8,2.4c2.2,0.9,6.8,1.5,9.9,1.5c1.2,0,2.8,0,3.6,0c0.8,0,1.7,0,2.1-0.1
		c0.4-0.1,0.9-0.1,1.2,0c0.5,0.1,1.8-0.1,5.5-0.5c1-0.1,1.9-0.2,2-0.1c0.1,0.1,0.9,0,1.7-0.1s1.6-0.2,1.8-0.2c0.2,0,1.8-0.1,3.7-0.3
		c1.9-0.2,3.9-0.3,4.4-0.3c0.5,0.1,1,0.1,1.1,0c0.2-0.1,3.4-0.6,3.9-0.5c0.2,0,0.5,0,0.8-0.1c0.3-0.1,0.7-0.1,1.1-0.1
		c0.3,0,0.7,0,0.8-0.1c0.1-0.1,0.8-0.2,1.5-0.2c0.7,0,1.9-0.1,2.6-0.2c0.8-0.1,2.1-0.2,3.1-0.2c0.9-0.1,2-0.1,2.4-0.2
		c3.9-0.4,5.9-0.5,6.3-0.5c0.3,0,1.1,0,1.8-0.1c0.7-0.1,1.9-0.2,2.7-0.1c0.8,0,1.6,0,1.8-0.1c0.2-0.1,1-0.1,1.7-0.2
		c0.7,0,1.7-0.1,2-0.1c1.7-0.2,13.1,0,15.7,0.2c1.1,0.1,3.3,0.2,5,0.3c3.8,0.2,6.6,0.5,8.6,1c0.9,0.2,2.6,0.5,3.8,0.8
		c1.7,0.3,2.8,0.7,4.8,1.6c2.9,1.3,3.4,1.6,4.7,3.1c1.2,1.4,1.7,2.6,1.5,4c-0.2,1.1-0.2,1.2-3.3,3.8c-1.1,0.9-3.7,1.9-5.7,2.2
		c-1.9,0.2-4.6-0.1-6.4-0.7c-0.7-0.3-1.3-0.6-1.3-0.7c0-0.1-0.2-0.2-0.5-0.2s-1-0.4-1.6-0.7c-0.6-0.4-1.5-0.8-1.9-1
		c-2.5-0.9-8.9-1.9-12.8-1.8c-1,0-2.3,0-2.8-0.1c-2.4-0.1-5.3,0-11,0.4c-2.1,0.2-5.3,0.3-7.1,0.4c-1.8,0.1-3.3,0.2-3.3,0.3
		c-0.1,0.1-0.3,0.1-0.5,0.1c-0.2,0-1.4,0.1-2.6,0.2s-2.4,0.2-2.7,0.2c-0.3,0-0.8,0-1.1,0.1c-0.3,0.1-1.8,0.2-3.3,0.3
		c-1.5,0.1-3,0.2-3.3,0.3c-0.3,0.1-0.8,0.1-1.1,0.1c-0.6-0.1-5.4,0.4-5.7,0.5c-0.2,0.1-2.1,0.2-5.3,0.4c-0.9,0.1-1.8,0.1-1.9,0.2
		s-0.6,0.1-1.1,0.1c-0.5,0-0.9,0.1-1,0.2c0,0.1-0.5,0.1-1,0.1c-0.5-0.1-1.2,0-1.4,0.1c-0.2,0.1-0.8,0.2-1.3,0.1
		c-0.5-0.1-1.2,0-1.6,0.1s-1,0.1-1.3,0.1c-0.4,0-1.3,0-2,0.1c-0.8,0.1-1.7,0.1-2,0.1c-0.4,0-0.8,0-1,0c-0.4,0.1-2.3,0.2-8.4,0.1
		c-1.1,0-2.2,0-2.3,0c-0.4,0.1-1.8,0-5.6-0.4c-2.4-0.2-7.4-1.2-7.3-1.4c0-0.1-0.7-0.3-1.5-0.5c-0.8-0.2-1.6-0.5-1.7-0.5
		c-0.1-0.1-0.5-0.3-1-0.5c-0.5-0.2-1.1-0.5-1.4-0.7c-0.3-0.2-0.7-0.3-0.7-0.3s-1.9-1.1-3.9-2.6c-4.7-3.2-7.8-5.2-8.1-5.2
		c-0.1,0-1,0.6-1.9,1.3c-0.9,0.7-1.9,1.5-2.2,1.7c-0.3,0.2-1,0.6-1.5,0.9c-0.5,0.3-1.1,0.7-1.3,0.9s-0.7,0.6-1.1,0.8
		c-0.9,0.5-1.4,0.8-2.5,1.6c-1.1,0.8-1.7,1.2-2.2,1.4c-0.3,0.1-0.4,0.2-0.3,0.2c0.1,0-0.4,0.4-1,0.8s-1.6,1-2,1.4
		c-0.4,0.3-1.2,0.9-1.9,1.2c-0.6,0.4-1.5,0.9-2,1.2c-0.4,0.3-1.1,0.8-1.5,1s-1,0.6-1.4,0.9c-2,1.4-9.3,4.3-10.9,4.2
		c-0.6,0-1,0.1-1,0.1c0,0.2-2.5,0.2-4,0c-1.5-0.2-4-1.1-4.3-1.4c-0.1-0.1-0.7-0.4-1.3-0.6c-0.6-0.2-1.6-0.9-2.3-1.5
		c-0.7-0.6-1.7-1.3-2.3-1.5l-1.1-0.5l-0.6,0.5c-0.3,0.3-0.7,0.8-0.9,1.3s-0.5,0.8-0.7,0.8c-0.2,0-0.4,0.2-0.4,0.4
		c0,0.2-0.6,0.5-1.2,0.7c-0.6,0.2-1.4,0.5-1.9,0.6s-2.1,0.5-3.7,0.7c-3.8,0.6-6.7,0.5-12.6-0.3c-2.3-0.3-4.6-0.7-5.2-0.8
		c-0.5-0.1-1.9-0.4-3.1-0.5c-1.2-0.2-2.3-0.4-2.6-0.6c-0.3-0.1-1.4-0.4-2.6-0.6c-1.2-0.2-2.2-0.4-2.4-0.5s-1-0.3-1.9-0.5
		c-0.9-0.2-1.9-0.4-2.3-0.4c-0.4-0.1-1.4-0.3-2.4-0.5c-3.5-0.7-5.7-1.2-6.6-1.6c-0.5-0.2-1.8-0.5-2.9-0.7c-1.1-0.2-2.4-0.5-2.9-0.7
		s-1.8-0.5-2.8-0.8c-1.6-0.4-3.8-1.4-4.5-1.9c-0.3-0.3-6.6,2.1-7.8,2.9c-0.5,0.3-1.6,0.9-2.4,1.2s-2.2,0.9-3.1,1.2s-1.7,0.7-1.8,0.8
		c-0.4,0.4-8.4,3.4-9.4,3.5c-0.6,0.1-1.2,0.2-1.2,0.4c0,0.2-0.4,0.3-1.1,0.2c-0.1,0-0.6,0.1-1,0.2c-0.4,0.1-1.1,0.3-1.6,0.4
		c-0.5,0.1-1.7,0.2-2.6,0.3c-1.4,0.2-2.3,0.2-5.3-0.1l-3.6-0.3l-2.6-1c-2.3-0.9-7.9-4-7.8-4.3c0-0.1-1.4-1.1-3.2-2.3
		c-3-2.1-4.4-2.7-4.5-2.1c0,0.1-0.6,0.5-1.3,0.9c-0.7,0.3-1.5,0.9-1.7,1.3c-0.3,0.4-0.6,0.6-0.8,0.6c-0.2,0-0.3,0.1-0.4,0.3
		s-0.3,0.3-0.5,0.4c-0.3,0-0.6,0.3-0.8,0.5c-0.2,0.3-0.6,0.6-1,0.7c-0.4,0.1-0.7,0.4-0.7,0.5c0,0.2-0.3,0.4-0.6,0.4
		c-0.3,0.1-0.6,0.4-0.8,0.6c-0.6,1-8.2,4.4-10.6,4.8c-1.1,0.2-3.9-0.1-5.9-0.5c-1.9-0.4-3.6-1.2-6.5-3.2c-3.4-2.2-4.8-3.1-5.3-3.1
		c-0.2,0-0.7,0.2-1.1,0.4c-1.8,1.2-2.5,1.6-2.8,1.5c-0.2,0-0.6,0.2-0.9,0.4s-1.4,0.8-2.4,1.2c-1,0.4-3,1.1-4.4,1.7
		c-4.4,1.7-6.4,2.3-7,2.3c-0.3,0-0.7,0.1-0.9,0.2c-0.2,0.2-0.6,0.3-0.8,0.2c-0.2,0-0.8,0.1-1.2,0.2c-0.4,0.1-0.9,0.2-1.2,0.2
		c-0.2,0-1.2,0-2.1,0.2c-2.8,0.3-3.6,0.4-4.4,0.3c-0.4,0-0.9,0-1.1,0c-0.7,0.2-5.8-0.4-8.2-1.1c-3.5-0.9-5.8-1.7-7.3-2.5
		c-0.5-0.3-1.1-0.5-1.3-0.5c-0.2,0-0.4-0.1-0.4-0.2c0-0.1-0.3-0.2-0.6-0.3c-0.4-0.1-0.6-0.3-0.6-0.4c0-0.1-0.2-0.4-0.5-0.5
		c-0.3-0.2-1.4-0.8-2.3-1.4c-1-0.6-2-1.1-2.3-1.1c-0.3,0-1.1,0.4-1.9,1c-2.9,2.1-10,6.6-11.9,7.5c-0.7,0.3-1.6,0.8-2,1
		c-0.4,0.2-2.3,0.9-4.3,1.7c-4.4,1.6-5.4,1.7-10.3,1.1C362.8,426.4,360.4,426.1,359.4,425.8L359.4,425.8z M373.7,406.4
		c0.3-0.2,0.8-0.5,1-0.5c0.4-0.1,1.9-1.2,3.7-2.8c0.1-0.1,0.9-0.7,1.7-1.3c1.9-1.3,4.2-3.1,4.2-3.3c0-0.1,0.3-0.4,0.7-0.6
		c0.3-0.3,0.6-0.6,0.5-0.6c-0.3-0.2-1.2,0-1.5,0.4c-0.1,0.2-0.4,0.4-0.6,0.3c-0.2,0-0.3,0.1-0.4,0.3c0,0.2-0.2,0.3-0.3,0.3
		c-0.2,0-3.1,2-3.1,2.3c0,0.1-3.1,2.2-3.6,2.4c-0.6,0.3-3.7,3-3.7,3.3C372.3,407,373.2,406.8,373.7,406.4L373.7,406.4z M572.1,399.1
		c1.2-0.2,2.9-0.6,3.6-0.8l1.3-0.5l-0.7-0.8c-0.4-0.5-0.8-1-0.9-1.1s-0.6-0.6-1.1-1.1s-1.1-1-1.3-1.3c-0.2-0.3-0.8-0.7-1.2-1
		c-0.5-0.3-0.9-0.6-0.8-0.8c0-0.1-0.2-0.5-0.5-0.7c-0.7-0.6-2-0.7-2.7-0.1c-0.3,0.2-0.9,0.6-1.3,0.8c-0.4,0.2-1.1,0.7-1.5,1
		c-1.1,1-1.6,1.5-3.3,2.6c-3.7,2.6-3.8,2.7-1.9,3c0.7,0.1,3.2,0.4,5.7,0.6C569.7,399.4,569.9,399.5,572.1,399.1L572.1,399.1z
		 M630.1,400.4c1.5-0.9,2.1-1.5,1.5-1.6c-0.4,0-2,0.6-2.5,1C628,400.6,628.9,401.1,630.1,400.4z M781.3,409.6
		c-0.6-0.3-1-0.3-0.8-0.1c0.1,0.1,0.4,0.2,0.7,0.3C781.7,409.8,781.7,409.8,781.3,409.6z M645.7,378.2c0.7-0.4,2-0.9,2.9-1.3
		c0.9-0.3,1.6-0.7,1.6-0.8c0-0.1,0.5-0.3,1.1-0.6c0.6-0.2,1.1-0.5,1.1-0.6c0-0.1,0.5-0.3,1.1-0.5s1.1-0.3,1.1-0.4
		c0-0.2,2-1.2,2.8-1.5c0.2-0.1,0.7-0.3,1.1-0.6c0.4-0.3,1.3-0.7,2.1-1.1c0.7-0.3,1.4-0.6,1.4-0.7c0-0.1,0.4-0.3,0.9-0.6
		c0.5-0.2,0.9-0.5,0.9-0.6s0.6-0.4,1.3-0.6s1.3-0.6,1.3-0.7c0-0.2,0.3-0.3,0.6-0.3c0.3,0,0.5-0.2,0.6-0.3s0.2-0.2,0.4-0.2
		s0.3,0,0.4-0.1c0-0.2,3.6-2.3,4.1-2.4c0.2,0,0.4-0.2,0.4-0.4c0-0.2,0.4-0.5,0.9-0.7c0.5-0.2,1.3-0.7,1.9-1.2
		c0.6-0.4,1.4-0.9,1.8-1.1c0.4-0.2,1.7-1,2.8-1.9c1.2-0.9,2.7-2,3.4-2.5s1.8-1.3,2.3-1.7c1-0.8,2.5-1.8,3.3-2.1
		c0.2-0.1,0.4-0.3,0.4-0.4c0-0.1,0.4-0.4,0.8-0.6c0.4-0.2,0.7-0.4,0.8-0.5c0.1-0.3,2.7-2.2,3.1-2.3c0.2,0,0.3-0.1,0.3-0.2
		c-0.1-0.3,1.1-1.4,2.3-2.3c0.7-0.5,1.2-0.9,1.3-1c0-0.1,0.1-0.2,0.3-0.2c0.4,0,1.6-1.1,1.7-1.4c0-0.1,0.2-0.4,0.4-0.5
		c0.2-0.1,0.6-0.5,0.9-0.7s0.9-0.6,1.3-0.9s1-0.7,1.1-1s0.5-0.6,0.6-0.6s0.3-0.1,0.3-0.2c0-0.1,0.3-0.4,0.6-0.6
		c0.5-0.3,1.8-1.6,5.1-5.2c0.9-1,1.7-1.8,1.9-1.8c0.1,0,0.3-0.2,0.4-0.5s0.4-0.5,0.7-0.6c0.3-0.1,0.7-0.5,0.9-0.9
		c0.2-0.4,0.9-1.1,1.5-1.6c0.6-0.5,1.1-1.1,1.2-1.2c0-0.2,0.2-0.4,0.4-0.6c0.2-0.1,0.8-1,1.3-1.9c0.5-0.9,1.5-2.3,2.1-3.2
		c0.6-0.9,1.3-1.9,1.5-2.2c0.2-0.3,0.6-1.1,0.9-1.7c0.8-1.7,1.1-2.2,1.4-2.3c0.1,0,0.5-0.6,0.8-1.3c0.3-0.7,1-2.1,1.6-3.3
		c1.3-2.6,1.9-4.4,1.5-4.5c-1-0.1-8.7,3.4-8.8,4c0,0.1-0.3,0.4-0.7,0.5c-1,0.4-3.2,1.9-5.1,3.4c-1,0.8-2.1,1.6-2.4,1.9
		c-3.3,2.2-4.3,2.9-4.9,3.5c-0.4,0.4-0.9,0.8-1.1,0.9s-0.7,0.5-1.1,0.8c-0.4,0.3-0.8,0.6-1,0.5c-0.2,0-0.3,0-0.2,0.2
		c0.2,0.2-1,1.1-1.4,1c-0.1,0-0.2,0.1-0.2,0.2s-0.7,0.8-1.6,1.4c-0.9,0.6-1.8,1.5-2.1,1.8c-0.7,0.9-2,1.9-3,2.4
		c-0.5,0.2-0.8,0.5-0.9,0.7c0,0.1-0.3,0.3-0.6,0.5c-0.3,0.1-0.6,0.4-0.6,0.5c0,0.1-1.1,1.1-2.3,2.1c-1.3,1-2.4,2.1-2.6,2.3
		s-0.5,0.6-0.8,0.7c-0.3,0.1-0.5,0.3-0.5,0.4c0,0.1-0.4,0.5-0.8,0.8c-1.3,1-2.7,2.2-2.8,2.4c0,0.1-0.4,0.4-0.8,0.7
		c-0.4,0.3-0.8,0.7-0.7,0.8c0,0.2-0.2,0.4-0.6,0.6c-0.9,0.4-2.7,1.8-4.8,4.1c-0.4,0.4-1.2,0.9-1.9,1.2c-0.6,0.2-1.3,0.7-1.6,1
		c-0.3,0.3-0.7,0.8-1,1c-1.9,1.4-2.5,2-2.8,2.7c-0.2,0.5-0.8,1-1.4,1.4c-0.6,0.3-1.1,0.7-1.1,0.8s-0.5,0.6-1.2,1.2
		c-0.6,0.5-1.3,1.2-1.4,1.6s-0.5,0.6-0.8,0.7c-0.3,0-0.6,0.3-0.8,0.6c-0.2,0.3-0.6,0.7-0.9,1c-0.3,0.3-0.7,0.7-0.8,0.9
		c-0.1,0.2-0.5,0.6-0.9,0.8c-0.4,0.2-0.7,0.4-0.7,0.5c-0.2,0.3-0.6,0.7-1,1c-0.3,0.2-0.7,0.7-1,1.2s-0.8,0.9-1,1s-0.5,0.4-0.6,0.8
		c-0.1,0.4-0.4,0.8-0.8,0.9c-0.4,0.2-0.9,0.6-1,1c-0.2,0.4-0.5,0.7-0.6,0.8c-0.2,0-0.3,0.2-0.4,0.5c0,0.2-0.2,0.4-0.4,0.4
		c-0.2,0-0.4,0.2-0.4,0.4c0,0.2-0.3,0.5-0.6,0.6s-0.6,0.4-0.8,0.7c-0.2,0.5-0.5,0.8-1.4,1.8c-0.1,0.1-0.3,0.3-0.5,0.2
		c-0.1,0-0.3,0.2-0.4,0.5c-0.1,0.3-0.4,0.7-0.7,0.9s-0.6,0.6-0.6,0.8c0,0.3-0.2,0.5-0.4,0.6s-0.4,0.3-0.5,0.5
		c-0.3,0.5-1.8,2.5-2.2,2.9c-0.2,0.2-0.1,0.3,0.4,0.3C644.2,378.8,644.9,378.6,645.7,378.2L645.7,378.2z"/>
</g>
<g id="g18_1_" inkscape:groupmode="layer" inkscape:label="Image">
	<path id="path22_1_" d="M517.3,524.8c-0.4-0.1-0.8-0.3-1-0.5c-0.1-0.2-0.5-0.3-0.7-0.3s-1.4-0.6-2.6-1.3c-1.2-0.7-2.3-1.4-2.5-1.5
		s-0.6-0.3-0.9-0.6c-0.2-0.3-0.6-0.5-0.8-0.5c-0.2,0-0.3-0.1-0.4-0.3c-0.1-0.3-2.8-2-3.1-1.9c-0.1,0-0.2-0.1-0.2-0.3
		s-0.2-0.4-0.4-0.4c-0.2,0-0.5-0.2-0.7-0.5c-0.2-0.3-0.5-0.5-0.6-0.4c-0.1,0.1-0.3-0.1-0.4-0.5c-0.1-0.4-0.4-0.7-0.7-0.7
		c-0.7,0-2.8-0.8-2.8-1.1c0-0.1-0.3-0.3-0.7-0.5c-0.4-0.1-0.7-0.4-0.7-0.6c0-0.2-0.2-0.4-0.4-0.4c-0.2,0-0.4-0.2-0.4-0.4
		c0-0.2-0.2-0.4-0.4-0.4s-0.4-0.1-0.4-0.3c0-0.3-1.1-1-4.8-3.4c-0.3-0.2-0.5-0.5-0.5-0.6s-0.1-0.3-0.3-0.3c-0.4,0-3.4-1.8-3.8-2.3
		c-0.2-0.2-1-0.8-1.8-1.3c-0.8-0.5-1.5-1.1-1.6-1.4c-0.1-0.5-5.4-2.9-6.3-2.9c-0.2,0-0.3-0.2-0.2-0.5c0.2-0.5-1.6-1.6-2.7-1.6
		c-0.3,0-0.6-0.3-0.7-0.7c-0.1-0.5-0.5-0.8-1.2-0.9c-0.6-0.1-1.2-0.4-1.3-0.6c-0.1-0.2-0.3-0.3-0.4-0.2c-0.1,0.1-0.5-0.2-0.9-0.7
		c-0.4-0.5-0.9-0.9-1.1-0.9c-0.2,0-0.8-0.4-1.2-0.8c-0.4-0.4-1.2-1.1-1.8-1.5c-0.6-0.4-1.1-0.8-1.1-1c0-0.2-0.4-0.4-0.9-0.5
		c-1.1-0.3-11.1-6.3-12.2-7.3c-0.2-0.1-0.8-0.5-1.5-0.7c-0.7-0.2-1.4-0.6-1.6-0.9c-0.7-0.8-1.6-1.3-2.2-1.3c-0.3,0-0.6-0.1-0.6-0.3
		c0-0.2-0.8-0.9-1.8-1.6c-1-0.7-2.1-1.6-2.4-2c-0.7-0.9-1.7-1.4-3.6-1.8c-0.8-0.2-1.5-0.5-1.6-0.6c-0.2-0.4-4.8-3.3-5.2-3.3
		c-0.2,0-0.4-0.1-0.5-0.3c-0.1-0.3-3.4-2.2-4.7-2.7c-0.3-0.1-0.6-0.4-0.6-0.5s-0.5-0.4-1.1-0.5c-0.6-0.1-1.4-0.6-1.8-0.9
		c-0.4-0.4-1.4-1-2.1-1.4c-0.8-0.4-1.4-0.9-1.5-1c-0.4-0.6-5.4-3.1-6-3c-0.1,0-0.2-0.1-0.2-0.3c0-0.2-0.8-0.8-1.8-1.3
		c-1-0.5-1.8-1.1-1.8-1.2c0-0.1-0.5-0.5-1.1-0.7c-0.6-0.3-1.1-0.7-1.1-0.9c0-0.5-2.6-1.6-4.3-1.8c-0.3,0-0.6-0.2-0.8-0.3
		c-0.4-0.3-0.9-0.4-3-1c-0.8-0.2-1.6-0.5-1.8-0.8c-0.2-0.2-0.6-0.4-0.8-0.5c-0.2,0-0.5-0.2-0.6-0.5c-0.1-0.2-0.5-0.4-0.8-0.5
		c-0.3-0.1-0.8-0.3-1-0.5c-0.2-0.2-0.5-0.4-0.7-0.4s-0.7-0.2-1-0.4c-0.3-0.2-1.2-0.6-1.9-0.9c-2-0.7-4.6-1.9-5.1-2.4
		c-0.2-0.2-0.9-0.7-1.4-0.9c-0.5-0.3-1.8-0.9-2.7-1.5c-3.9-2.3-4.9-2.8-5.4-2.8c-0.3,0-0.7-0.2-0.9-0.5s-0.7-0.5-1-0.5
		c-0.3,0-0.5-0.2-0.5-0.4c0-0.2-0.3-0.4-0.7-0.4s-0.9-0.1-1.2-0.3c-1.3-0.9-4.5-2.4-8.3-3.9c-0.9-0.4-1.8-0.8-2-1
		c-0.2-0.2-0.4-0.3-0.5-0.4c-0.1,0-0.6-0.2-1.1-0.3c-0.5-0.1-1.1-0.5-1.2-0.8s-0.5-0.5-0.7-0.5s-0.7-0.2-1.2-0.5
		c-0.4-0.3-1.4-0.7-2.1-1c-2.4-1-3.3-1.4-4.9-2.4c-0.9-0.5-2.2-1-2.8-1.1c-1-0.1-2.2-0.7-2.7-1.4c-0.1-0.1-0.4-0.2-0.8-0.3
		c-0.4-0.1-1-0.4-1.3-0.7s-0.8-0.6-1-0.6c-0.2-0.1-0.7-0.3-1.2-0.5c-0.4-0.2-0.9-0.4-1.1-0.4c-0.5,0-2.5-1.2-2.5-1.5
		c0-0.2-0.3-0.3-0.7-0.3c-0.4,0-1.2-0.3-1.8-0.7c-1-0.6-3.4-1.5-4.6-1.7c-1.2-0.2-2.3-0.7-2.8-1.2c-0.3-0.3-0.7-0.7-0.9-0.7
		c-6.2-2.2-10.7-3.6-16.1-5.1c-4.3-1.2-7.6-2.3-9.3-3.2c-1.5-0.7-4.5-2-6.8-2.8s-5.1-2-6.2-2.5c-1.2-0.6-2.6-1.1-3.1-1.1
		c-0.8-0.1-1,0-1.2,0.8c-0.1,0.5-0.2,25.6-0.2,55.8c0,53.1-0.1,54.9-0.6,56.4c-0.9,2.5-2.7,4.7-4.3,5.3c-0.8,0.3-2.2,1-3.1,1.7
		c-2,1.3-3.8,1.5-4.6,0.5c-0.8-1-0.7-1.3,0.4-1.3c0.5,0,1.2-0.3,1.6-0.6c0.6-0.6,0.6-0.7,0.1-1.2c-0.4-0.4-1.7-0.5-6.7-0.5
		c-6.8,0-9.2-0.4-11.1-1.8c-1.1-0.8-2.6-2.7-3.5-4.4c-0.3-0.5-0.9-0.9-1.8-1.1c-0.8-0.2-2.9-1.3-4.8-2.4c-2.7-1.6-3.7-2.5-4.9-4
		c-0.8-1.1-1.5-2.2-1.5-2.5c0-0.3-0.2-0.9-0.4-1.3c-0.5-0.9-2.2-10.1-2.9-15.4c-0.4-3.1-0.5-5.9-0.5-16.9c0-17.8,1.1-41.2,2.7-61.2
		c0.3-3.9,0.7-8.9,0.7-11l0.2-3.8h-3.3h-3.3l-2.6-1.6c-1.4-0.9-3.2-1.9-4-2.4c-0.8-0.4-1.4-1-1.5-1.3c-0.1-0.3-0.6-0.7-1.2-0.9
		c-0.6-0.2-1.7-1-2.5-1.9s-1.8-1.8-2.1-2.2c-0.4-0.4-1.4-0.8-2.7-0.9c-1.1-0.1-2.4-0.5-2.7-0.7c-0.4-0.2-1-0.4-1.3-0.3
		c-0.5,0.1-0.7,0-0.7-0.5c0-0.5-0.3-0.7-1.2-0.8c-1.2-0.1-1.2-0.1-1.2-1.4V376l-2.1-0.2c-1.4-0.1-2.4-0.4-2.8-0.8
		c-0.4-0.3-1-0.6-1.5-0.6c-0.5,0-1.2-0.4-1.7-1.1c-0.5-0.6-1.3-1.1-1.7-1.1c-0.8,0-1-0.5-0.4-0.8c0.7-0.3-0.9-1.6-3-2.4
		c-1.1-0.4-2.2-0.9-2.3-1.1c-0.5-0.5-0.7-2.3-0.4-3.5c0.4-1.4,1.7-2,7.2-3.6c3-0.9,4.2-1.1,5.2-0.9c2.3,0.5,3.6-0.2,4.7-2.3
		c0.6-1.2,0.9-1.4,2.2-1.8c0.8-0.2,2.4-0.4,3.5-0.5c1.7-0.1,2.1,0,2.4,0.6c0.5,0.9,2.1,0.6,5.1-1c1.3-0.7,3.1-1.5,4.2-1.8
		c1.1-0.3,2.5-0.9,3.2-1.4l1.3-0.9l-0.8-0.4c-0.4-0.2-0.8-0.5-0.8-0.7c0-0.5,3.7-2.5,5.8-3.1c1.1-0.3,2.3-0.6,2.6-0.7
		c0.7-0.2,1.5-1.1,1.5-1.6c0-0.2-0.3-0.8-0.7-1.3c-0.4-0.6-0.7-1.6-0.8-2.4c-0.1-0.8-0.6-2.1-1-3c-0.5-0.9-0.9-1.9-0.9-2.2
		s-0.8-2.3-1.7-4.6c-0.9-2.2-1.7-4.3-1.7-4.5s-0.4-1-0.8-1.5c-0.5-0.6-1.1-1.9-1.4-3c-0.3-1.1-1.8-4.9-3.3-8.5
		c-1.5-3.6-2.7-6.7-2.7-7c0-0.3-0.7-1.5-1.6-2.8c-0.9-1.2-1.5-2.4-1.4-2.7s-0.2-1-0.7-1.6s-0.8-1.5-0.8-1.8c0-0.3-0.2-0.8-0.5-1.1
		s-1-2-1.7-3.9c-1.5-4.2-1.9-5-3.5-8.1c-2.9-5.6-6.9-14.2-7.7-16.8c-0.5-1.5-1.2-3.2-1.6-3.7c-0.4-0.5-1.7-2.8-2.8-5.2
		c-1.1-2.4-2.4-4.9-2.9-5.7c-0.5-0.8-1.7-3.1-2.6-5.2c-0.9-2.1-2.3-4.9-3.1-6.3c-0.8-1.3-1.9-3.7-2.5-5.3c-0.9-2.3-1.5-3.3-3.1-5.2
		c-1.1-1.3-2.6-3.3-3.2-4.6s-1.8-3.3-2.6-4.4s-2.1-3.5-2.9-5.2c-1.8-3.7-6.8-12.2-9.8-16.6c-1.2-1.7-2.1-3.2-2.1-3.4
		c0-0.2-0.8-1.5-1.7-3c-0.9-1.5-2.2-3.5-2.7-4.6c-0.5-1-1.1-1.9-1.3-1.9c-0.2,0-0.9-1-1.5-2.1c-2-3.9-5.2-9-6.7-10.6
		c-0.9-1-1.7-2.3-2.1-3.3c-0.3-1-1.9-3.5-3.7-6c-1.7-2.4-3.2-4.6-3.3-5.1c-0.1-0.4-0.4-0.9-0.7-1c-0.3-0.1-1.2-1.3-2-2.7
		c-2.1-3.6-5.2-7-7.7-8.5c-1.2-0.7-2.4-1.6-2.7-1.9s-1-0.7-1.5-0.9c-0.5-0.1-2.8-1.3-5-2.6c-2.2-1.3-5-2.7-6.2-3.3s-3-1.6-4-2.5
		c-1-0.8-3-2.2-4.4-3c-3.8-2.1-7-4.2-12.1-7.9c-2.5-1.8-4.7-3.3-4.8-3.3c-0.2,0-1.6-1.1-3.1-2.5c-1.5-1.4-4-3.3-5.5-4.3
		s-3.3-2.4-4.1-3.2c-0.8-0.8-1.6-1.5-1.9-1.5c-0.3,0-1.3-0.9-2.4-1.9c-2.2-2.3-5.7-5.1-6.8-5.4c-0.4-0.1-0.8-0.5-0.8-0.7
		s-0.4-0.6-0.8-0.7c-0.9-0.2-1.7-1-2.9-3.1c-0.4-0.7-1-1.3-1.3-1.3s-1.1-0.9-1.8-2c-0.7-1.1-1.7-2.1-2.1-2.2
		c-0.9-0.3-2.6-1.7-5.5-4.7c-1.2-1.3-2.8-2.7-3.4-3.1c-0.6-0.5-1.7-1.5-2.4-2.4c-0.7-0.9-2.5-2.9-4-4.4s-3.2-3.6-3.9-4.5
		c-0.7-0.9-1.3-1.6-1.5-1.6c-0.4,0-1.7-3.7-1.7-4.8c0-1.6,1.1-4.1,2.3-5.2c2-1.9,2.4-1.8,8.3,0.7c1.4,0.6,4.6,1.7,7.1,2.5
		c2.5,0.8,6.6,2.3,9.2,3.4c3.1,1.3,5.7,2.2,7.6,2.5c5.3,0.9,11.7,3.4,12.9,5c0.4,0.5,1,0.9,1.5,0.9c0.5,0,1.2,0.3,1.6,0.7
		c0.4,0.4,1.5,1,2.6,1.5c2.7,1,7.3,3.8,11.2,6.8c1.8,1.4,3.5,2.5,3.7,2.5s1.1,0.6,1.9,1.3c0.8,0.7,1.9,1.4,2.5,1.5
		c0.6,0.1,1.2,0.5,1.4,1.1c0.2,0.5,2.4,2.7,4.8,5c2.4,2.2,6.9,6.7,10.1,10c3.2,3.2,6.4,6.4,7.2,7c0.8,0.6,1.4,1.3,1.4,1.6
		c0,0.8,3.9,6.2,7.1,9.8c5.3,6.1,9.3,9,15,11.3c1.7,0.7,5,2,7.2,3c2.3,1,6.8,2.8,10.2,4.1c17.6,6.9,22.5,8.8,23.5,9.4
		c0.7,0.5,1.4,0.6,2.1,0.5c0.6-0.1,1.4,0,1.9,0.3c1.2,0.7,1.9,0.9,9,3.1c3.2,1,6.7,2.2,7.7,2.7c1,0.5,4.1,1.5,6.8,2.2
		c2.7,0.7,5.5,1.6,6.3,2c0.8,0.4,2.9,1,4.7,1.4c1.8,0.4,4.6,1.1,6.4,1.6c1.7,0.5,4.3,1,5.8,1.2c1.5,0.2,3.3,0.6,4.1,0.9
		c1.7,0.6,6.1,1.5,9.3,2c1.2,0.2,3.7,0.9,5.5,1.6c1.8,0.7,3.8,1.4,4.5,1.5c0.7,0.1,2.5,0.5,3.9,0.8l2.7,0.6l1-1.5
		c0.6-0.8,1.6-2.7,2.3-4.3s1.6-3.3,2-3.8c0.8-1,1.9-1.3,2.5-0.6c0.3,0.3,0.5,0.2,1.2-0.4c1-0.9,1.1-1,1.2-0.2c0,1.1,1-0.8,1.8-3.5
		c0.6-1.9,0.9-2.6,1.5-2.9c1-0.5,3.2-0.1,3.5,0.6c0.2,0.4,0.5,0.5,1.4,0.3l1.2-0.2l-0.2,2.7c-0.1,1.5-0.1,2.7,0,2.7
		c0.1,0,0.4-0.6,0.7-1.4c0.3-0.8,0.6-1.4,0.7-1.4c0.1,0,0.7,0.8,1.4,1.7l1.2,1.7l1.6-1.7c2.4-2.4,3.1-2.8,4.8-2.6
		c2,0.2,4,1.5,5.8,3.9c1.3,1.6,1.7,2.4,2.1,4.1c0.5,2.2,2.3,5.1,2.6,4.3c0.2-0.5,1.5-0.6,1.5-0.1c0,0.2-0.3,0.8-0.6,1.4
		c-0.6,1.1-1.4,4.6-1.4,6.3c0,0.7,0.2,1.5,0.5,1.9c0.6,0.8,4.3,1.9,8.6,2.7c1.6,0.3,4.2,0.9,5.7,1.3c1.5,0.4,4.9,1,7.5,1.2
		c2.6,0.3,5.2,0.8,5.8,1.1c1.1,0.6,10.2,2.5,13.7,2.9c1.2,0.1,2.3,0.4,2.5,0.6c0.2,0.2,0.8,0.3,1.3,0.3c2.2-0.2,14,2.1,15.5,3
		c0.6,0.4,2.2,0.7,4.9,0.9c4.8,0.4,8.5,1.1,12.7,2.5c1.7,0.6,4.3,1.3,5.8,1.6c3.2,0.7,9.4,2.3,13.7,3.5c1.7,0.5,4.9,1.2,7.1,1.5
		c4.7,0.7,10.2,2.2,15.4,4.3c4.3,1.7,4.5,1.8,7.7,2.5c6.2,1.4,21.4,8.2,24.9,11.3c0.6,0.5,1.6,1.2,2.2,1.4s2.6,1.7,4.5,3.3
		c1.9,1.6,3.8,2.9,4.3,3.1c0.5,0.1,0.9,0.6,1.1,1c0.1,0.5,0.8,1.1,1.5,1.4c2.9,1.5,3.9,2.1,3.9,2.4c0,0.1,0.9,0.8,2,1.6
		c3.7,2.5,10.2,9.2,11.9,12.2c0.5,1,1.3,1.8,2.1,2.3c1.7,1,4.8,4.3,6.2,6.8c0.7,1.1,1.7,2.7,2.2,3.6c1.5,2.2,2.1,5.9,1.4,9.1
		c-0.5,2.2-5.5,8.8-8.7,11.5c-1,0.8-1.4,1-2.4,0.8c-0.9-0.2-1.7,0.1-3.6,1.1c-1.4,0.7-3.2,1.4-4,1.6c-0.8,0.2-2,0.7-2.6,1
		c-0.6,0.4-2.2,1.2-3.6,1.8c-1.4,0.6-4.3,2.2-6.4,3.4c-3.2,1.9-4.2,2.3-5.8,2.5c-1.1,0.1-3.3,0.7-4.8,1.3c-1.5,0.6-3.5,1.1-4.4,1.2
		c-1.4,0.1-1.8,0.3-2.5,1.2c-1.4,1.7-4.5,3.4-5.6,3.2c-2.8-0.7-2.8-0.7-5.8,0.8c-1.6,0.8-3.1,1.5-3.3,1.5c-0.3,0-1.4,0.5-2.6,1.1
		s-3,1.2-4.1,1.4c-1.3,0.2-2.8,0.8-4.1,1.7c-1.9,1.2-2.4,1.3-5,1.4c-2.6,0.1-3.1,0.2-4.7,1.2c-1.7,1.1-4.3,1.9-7.4,2.4
		c-0.8,0.1-1.6,0.4-1.8,0.7c-0.6,0.7-6,3.3-8.2,4c-3.9,1.2-4.8,1.6-5.3,2.1c-0.3,0.4-1.3,0.7-2.9,0.9c-2.8,0.4-5.2,1.1-6.9,2.1
		c-0.7,0.4-1.8,0.7-2.6,0.7c-1.4,0-2.8,0.5-3.1,1.2c-0.1,0.3-0.4,0.2-0.7-0.4c-0.4-0.7-0.6-0.8-1.6-0.6c-0.7,0.1-1.4,0.5-1.7,1
		c-0.7,1.1-2.9,1.4-4.2,0.5c-0.7-0.4-1-0.5-1.1-0.2c-0.1,0.2-0.3,0.4-0.6,0.4s-0.6,0.2-0.7,0.4c-0.2,0.4,0.1,0.5,1.2,0.4
		c0.5-0.1,0.6,0.1,0.6,0.8c0,1.2-0.9,2.2-2.1,2.2c-0.6,0-1.1,0.2-1.2,0.4c-0.2,0.4-4.8,2.3-5.4,2.3c-0.2,0-1.3-0.5-2.4-1
		c-1.1-0.6-2.1-0.9-2.2-0.9s-0.2,0.6-0.2,1s-0.2,1-0.4,1.1c-0.4,0.2-5.6-0.4-7.3-0.8c-0.7-0.2-0.8,0-1.1,0.7
		c-0.2,0.5-0.5,0.9-0.7,0.9c-0.2,0-0.8,0.6-1.3,1.4c-1.1,1.8-2.4,2-2.8,0.5c-0.3-0.9-0.7-1.1-1.8-0.9c-1.5,0.2-4.4,3.3-4.9,5.2
		c-0.3,1.1-0.6,1.3-2.9,2.5c-1.4,0.7-3,1.3-3.5,1.3c-0.5,0-1.1,0.3-1.5,0.7c-0.5,0.6-0.9,0.7-3.9,0.7c-3.1,0-3.3,0-3.9,0.9
		c-0.5,0.7-0.9,0.9-2.1,0.9c-1.1,0-1.5,0.2-1.9,0.8c-0.3,0.5-0.8,1-1.1,1.3c-0.8,0.6-3.4,0.5-3.5,0c-0.1-0.3-0.5,0-1.3,0.9
		c-1.3,1.4-2.1,1.7-2,0.7c0.1-0.5-0.1-0.6-1.2-0.6c-0.7,0-1.7,0.3-2.2,0.5c-0.8,0.4-1.2,0.4-3.3-0.3c-3.9-1.3-6.5-0.9-9.1,1.5
		c-0.8,0.7-1.9,1.7-2.4,2.2l-1.1,1l-1.3-0.6c-1.7-0.8-2.7-0.8-3.4,0c-0.6,0.6-0.6,0.7-0.2,1.1c0.6,0.7,0.6,1.8-0.2,3.3
		c-0.5,1-1.1,1.4-2.6,2.1c-2.5,1-3,1-2.9,0c0.1-0.5,0.4-0.9,1-1.1c0.9-0.3,3.3-2.8,2.7-2.8c-0.2,0-1.3,0.2-2.4,0.5
		c-2,0.5-3.9,1.6-5.5,2.9c-0.4,0.4-1.1,0.8-1.4,1c-1.1,0.4-2.8,2.3-3.7,4c-0.8,1.5-0.9,2-0.9,4.3c0,1.4,0.1,3.1,0.3,3.8
		c0.6,2.4,2.6,4.2,5.9,5.5c0.8,0.3,1.8,0.9,2.1,1.3c0.3,0.4,0.9,0.7,1.3,0.7c1.2,0,3.3,0.9,6.1,2.5c1.5,0.9,8.3,3.6,17.6,7.2
		c25.4,9.6,26.4,10,26.6,10.4c0.1,0.2,1,0.6,2.1,0.9c2.7,0.7,9.4,2.9,10.1,3.3c0.3,0.2,1.9,0.8,3.5,1.4s3.9,1.5,5.1,2.1
		c1.2,0.5,2.8,1.2,3.7,1.6c0.8,0.4,1.8,0.9,2.2,1.2c0.4,0.3,1.4,0.8,2.3,1.2c0.9,0.4,2.2,1,2.9,1.3c0.7,0.3,1.7,0.7,2.3,0.9
		c1,0.3,4.3,1.8,5.8,2.7c0.5,0.3,1.6,0.7,2.5,1c2.2,0.7,6.3,2.5,7.4,3.2c0.5,0.3,1.2,0.6,1.6,0.6c0.7,0,1.8,0.5,2.2,1.1
		c0.1,0.1,0.3,0.2,0.6,0.3c0.2,0.1,1.3,0.6,2.3,1.2c1,0.6,2.3,1.2,2.8,1.4c0.5,0.2,1.3,0.4,1.7,0.5c0.4,0.1,0.9,0.4,1.2,0.7
		s0.6,0.5,0.7,0.5c0.1,0,0.9,0.4,1.7,0.9c0.8,0.5,2.3,1.1,3.3,1.5s2,0.8,2.3,1.1c0.2,0.3,0.8,0.5,1.2,0.5s0.9,0.3,1.2,0.6
		c0.2,0.3,0.4,0.5,0.4,0.4s0.5,0.1,1.1,0.5c0.6,0.4,1.3,0.7,1.5,0.7s1.2,0.5,2.2,1.1s1.9,1.1,2.1,1.1c0.4,0,2.5,1.2,5.2,2.9
		c0.9,0.6,1.9,1,2.2,1s1.2,0.4,2,0.9c0.8,0.5,1.6,0.9,1.9,0.9c0.3,0,0.7,0.2,0.9,0.5c0.5,0.7,1.9,1.4,5.2,2.7c1.6,0.6,3,1.3,3.3,1.5
		c0.3,0.2,0.7,0.3,0.9,0.3s1.3,0.5,2.3,1.1c1,0.6,2.5,1.5,3.3,1.9c2.5,1.4,3.4,2,4.4,2.7c0.5,0.4,1.2,0.7,1.5,0.7
		c0.3,0,0.5,0.1,0.5,0.3c0,0.7,9.4,5.8,9.8,5.3c0.1-0.1,0.4,0.2,0.7,0.5c0.3,0.4,0.8,0.7,1,0.7c0.2,0,1.2,0.6,2.1,1.3
		c0.9,0.7,1.8,1.2,1.9,1.1c0.3-0.2,2,0.5,2,0.9c0,0.2,0.3,0.3,0.7,0.3c0.4,0,0.7,0.2,0.7,0.4c0,0.2,0.2,0.4,0.4,0.4
		c0.2,0,0.4,0.1,0.4,0.3c0,0.2,0.7,0.7,1.6,1.2c0.9,0.5,1.9,1.2,2.3,1.5c1.2,0.9,3.9,2.4,4.4,2.4c0.2,0,0.4,0.2,0.4,0.4
		c0,0.2,0.1,0.3,0.2,0.3c0.1,0,0.8,0.3,1.5,0.7c0.7,0.5,1.6,0.8,1.9,0.9c0.3,0,0.6,0.2,0.6,0.3c0,0.2,0.6,0.6,1.4,0.9
		c0.1,0,0.3,0.1,0.6,0.2c0.6,0.3,4.1,1.9,4.2,1.9c1.1,0.4,1.4,0.6,1.4,0.9c0,0.2,0.2,0.3,0.4,0.3s0.4,0.2,0.4,0.3
		c0,0.3,2.2,1.8,2.7,1.8c0.2,0,1.6,0.8,3.7,2c0.8,0.5,1.7,0.9,1.9,1c0.3,0.1,0.6,0.3,0.7,0.5c0.1,0.2,0.8,0.8,1.6,1.2
		c0.8,0.5,1.7,1,2,1.3c0.3,0.2,1.1,0.7,1.7,1c0.6,0.3,1.7,1,2.5,1.5c0.7,0.5,2.3,1.2,3.5,1.6c1.2,0.4,2.4,0.9,2.6,1.1
		c1,0.7,2.6,1.4,4.8,2.3c1.7,0.7,2.9,1.4,4.2,2.7c1,1,2.2,2,2.5,2.1c0.3,0.2,0.9,0.9,1.2,1.5s1,1.5,1.3,1.8c0.4,0.3,0.9,1.3,1.3,2.3
		c0.3,0.9,0.8,2.1,1,2.6s0.6,2.2,0.8,3.8c0.4,2.4,0.4,3.1,0.1,4.4c-0.2,0.8-0.5,1.5-0.6,1.5s-0.2,0.2-0.2,0.5c0,0.2-0.3,0.9-0.7,1.4
		c-0.4,0.5-0.7,1.1-0.7,1.3c0,0.4-1.3,1.9-2.2,2.5c-4.2,3-3.5,2.7-8.3,2.8C519.9,524.9,517.6,524.8,517.3,524.8L517.3,524.8z
		 M325.5,348.6c-0.1-0.2-0.3-0.2-0.6,0.1c-0.2,0.2-0.3,0.6-0.2,0.8c0.1,0.2,0.3,0.2,0.6-0.1C325.5,349.1,325.6,348.8,325.5,348.6z
		 M324,347.2c0-0.4-0.8-0.4-1,0c-0.3,0.6,0.1,1.2,0.6,0.7C323.8,347.7,324,347.4,324,347.2z M337.6,342c-0.2-0.1-0.6-0.1-0.8,0
		c-0.3,0.1-0.1,0.2,0.3,0.2C337.6,342.2,337.8,342.1,337.6,342L337.6,342z M341.5,341.5c0.3-0.3,0.1-0.3-0.8-0.4
		c-0.7,0-1.3,0.2-1.4,0.4C339.2,342,340.9,342,341.5,341.5z M318.3,338.8c0.3-0.4,0.3-0.5-0.2-0.5c-0.3,0-0.8,0.2-1.2,0.5l-0.7,0.5
		l0.9,0C317.6,339.4,318.1,339.1,318.3,338.8z M294.3,328.4c1.8-0.5,4.6-1.5,6.3-2.1c1.6-0.7,5.3-2,8.2-3c5.2-1.7,9-3.1,16.4-5.8
		c2.1-0.8,5.1-1.7,6.6-2.1c1.5-0.4,3.1-0.9,3.5-1.2c0.4-0.3,1.4-0.6,2.1-0.7c0.8-0.1,1.6-0.5,1.9-0.8c0.3-0.3,1.9-0.9,3.7-1.3
		c4-0.9,7.8-2.1,12.2-3.9c1.9-0.8,6.9-2.6,11.2-4.1s8.9-3.2,10.3-3.8s6.4-2.4,11.1-4.1c4.7-1.7,9.6-3.6,10.8-4.2s3.6-1.5,5.2-2
		c1.6-0.5,4.9-1.9,7.4-3.2s5.4-2.5,6.5-2.9c4.8-1.5,11.2-4.5,16.4-7.7c2.7-1.7,2.8-1.8,2-2.1c-0.4-0.2-1-0.4-1.2-0.4
		c-0.6,0,0.4-2.1,1.4-2.9c0.9-0.7,2.7-1.6,3.9-1.9c0.4-0.1,1.7-1.1,2.9-2.2c1.2-1.1,2.6-2.2,3.2-2.5c1.2-0.6,3-2,7.9-6.1
		c1.7-1.4,3.6-2.9,4.3-3.3c1.2-0.8,2-1.7,1.7-2.1c-0.1-0.1-0.5,0.1-0.9,0.5c-1.7,1.7-1.7,0.6,0-2.5c0.7-1.3,1.3-2.6,1.3-2.9
		c0-0.5-0.7-0.9-3.1-1.9c-5.3-2.2-8.4-2.9-8.9-2c-0.3,0.7-0.7,0.4-0.7-0.5c0-1.1-0.8-1.4-6-2.2c-4.3-0.6-6.1-1-9.7-2
		c-1.4-0.4-3.6-0.8-4.8-1.1c-1.2-0.2-3-0.7-3.8-1.1c-0.9-0.4-3.2-1-5.1-1.4c-1.9-0.4-5.2-1.1-7.2-1.6c-2-0.5-6.5-1.4-10-2
		c-3.5-0.6-7.2-1.3-8.2-1.6c-3.1-0.9-4.5-1.2-8.6-1.8c-2.2-0.3-4.4-0.8-4.9-1c-0.6-0.3-2.2-0.6-3.6-0.7s-3.1-0.4-3.6-0.7
		c-0.6-0.3-1.3-0.5-1.7-0.5s-1.2-0.2-1.9-0.6c-0.7-0.3-2.6-0.7-4.2-0.9c-1.6-0.2-3.4-0.6-4-0.9c-0.5-0.3-2.5-0.7-4.2-0.9
		c-2.2-0.2-4.1-0.7-5.9-1.4c-2.8-1.1-6-1.5-6.4-0.7c-0.3,0.6-6.2,0.2-8.9-0.6c-2.7-0.7-7.6-2.4-10.7-3.6c-1.3-0.5-3.4-1.1-4.7-1.3
		s-3.2-0.5-4.2-0.7c-4-0.8-3.7-0.8-4.2,0.2c-0.3,0.5-0.6,2.4-0.9,4.2c-0.2,1.8-0.7,4.2-1.1,5.2c-0.9,2.6-1.4,5.4-1.1,7.3
		c0.1,0.9,0.2,2.5,0.2,3.6l0,2.1l1-1.2c0.5-0.6,0.9-0.9,0.8-0.6c-0.1,0.3-0.4,1.7-0.7,3.1c-0.6,2.7-0.9,3.3-1.5,2.6
		c-0.3-0.3-0.4-0.1-0.5,1.2c-0.1,0.9-0.4,1.9-0.6,2.3c-0.3,0.4-0.6,1.5-0.6,2.6c-0.1,1-0.4,3-0.8,4.4c-0.4,1.4-0.9,4.5-1.2,7
		c-0.6,4.8-1,6.4-2.3,11.1c-0.9,3.2-1.8,8.6-2.2,13.4c-0.2,1.8-0.5,3.2-0.8,3.8c-0.3,0.5-0.6,1.4-0.7,1.9c-0.2,1,0.2,2.8,0.7,3.2
		c0.5,0.4,0.1,1.5-1.5,4.1c-1.7,2.9-1.9,3.7-2.2,8.8c-0.2,2.3-0.6,4.9-1,6.4c-0.9,3.4-1.4,6.4-2,11.3c-0.4,3.9-0.7,5.4-1.1,6.9
		C290.5,329.5,290.4,329.5,294.3,328.4L294.3,328.4z M300.1,323.3c-0.2-0.4,0.5-0.8,1.2-0.7c0.3,0.1,0.5,0.3,0.6,0.6
		C302,323.7,300.4,323.8,300.1,323.3z M318.1,317.5c-0.4-0.3-0.4-0.4,0-0.7c0.2-0.2,0.7-0.4,1-0.4c0.3,0,0.8,0.2,1,0.4
		c0.4,0.3,0.4,0.4,0,0.7c-0.2,0.2-0.7,0.4-1,0.4C318.7,317.9,318.3,317.7,318.1,317.5z M326.7,314.1c0.3-0.3,0.8-0.5,1.1-0.5
		c0.6,0,0.6,0,0,0.5c-0.3,0.3-0.8,0.5-1.1,0.5C326.1,314.7,326.1,314.7,326.7,314.1z M362.7,324c0-0.5-0.6-0.5-1.1,0
		c-0.3,0.3-0.3,0.3,0.4,0.4C362.3,324.3,362.7,324.2,362.7,324z M410.9,317.2c0.2,0,0.7-0.3,1-0.7l0.7-0.7l-0.8,0
		c-0.4,0-1.1,0.4-1.6,0.9c-0.5,0.6-0.6,0.9-0.3,0.7C410.3,317.3,410.7,317.2,410.9,317.2L410.9,317.2z M247,299.4
		c0.4-1.1,2.5-11.8,4.1-21.6c0.3-1.7,0.8-4.4,1.1-6.1s0.9-4.6,1.2-6.6s1-5.3,1.5-7.3c0.5-2.1,1.3-5.8,1.7-8.2
		c1-5.9,2.4-11.6,4.2-17.5c1-3.1,1.8-6.5,2.3-9.5c1.1-6.7,1.8-9.3,2.7-9.4c0.9-0.2,1.2,0.5,1,2.1c-0.1,1.2-0.1,1.2,0.3,0.5
		c0.3-0.4,1.2-2.5,2-4.8c2.5-6.7,2.8-8.2,1.7-9.1c-1-0.8-5.4-2.2-14.5-4.5c-8.6-2.2-25.8-7.4-30-9.2c-2.1-0.9-8.2-3-12.6-4.3
		c-4.3-1.3-15.2-5.6-18.6-7.2c-1.3-0.6-2.6-1.1-3-1.1s-2.1-0.7-3.8-1.6c-2.5-1.4-3.3-1.6-4.7-1.6c-1.3,0-2.3-0.3-4.5-1.4
		c-4.5-2.2-7.5-3-7.5-2.1c0,0.2,0.6,1.3,1.4,2.4s1.6,2.6,1.9,3.3s1.5,2.6,2.7,4.2c1.4,1.8,2.2,3.2,2.2,3.6c0,0.4,0.4,1.1,0.8,1.5
		c0.5,0.4,1.3,1.6,1.9,2.8c0.6,1.1,1.9,3.2,3,4.7c1.3,1.8,1.9,2.9,1.8,3.4c-0.1,0.4,0.1,0.8,0.4,1c0.3,0.2,1.3,1.8,2.3,3.6
		c0.9,1.8,2,3.6,2.4,4c0.4,0.4,1,1.4,1.3,2.2c0.3,0.8,1.1,2.2,1.8,3.1c1.6,2.2,5.8,9.2,7.9,13.1c0.9,1.7,2,3.5,2.4,4
		c0.4,0.5,1.2,2,1.8,3.3c1.2,2.7,2.2,4,4.1,5.2c1.1,0.7,1.4,1.1,1.5,2.1c0.1,0.8,0.4,1.4,1,1.8c1.2,0.9,2.8,4.4,3.3,7.2
		c0.5,2.6,2.7,7.4,4.1,9c0.5,0.6,0.9,1.3,0.9,1.7c0,0.4,0.3,0.9,0.6,1.1c0.3,0.2,0.6,0.7,0.6,1.2c0,1.4,0.3,2,1.1,2
		c0.7,0,0.9,0.2,1.3,1.6c1.1,3.6,6.6,14.2,9.5,18.2c0.9,1.2,1.4,2.2,1.3,2.5c-0.2,0.8,1.4,4.7,2.7,6.5c0.6,0.8,1.2,2.1,1.4,2.8
		c0.4,1.4,3.1,6.8,4.2,8.3C245.9,301.3,246.3,301.1,247,299.4L247,299.4z M266.4,210.5c-0.2-0.3-0.3-1.1-0.3-1.7
		c0.1-1,0.2-1.2,0.8-1.2c0.6,0,0.7,0.1,0.7,1.6C267.6,210.9,267,211.5,266.4,210.5L266.4,210.5z M440.5,271.8
		c-0.1-0.2-0.4-0.3-0.6-0.1c-0.6,0.3-0.5,0.5,0.2,0.5C440.5,272.1,440.6,272,440.5,271.8z M446.5,269.1c2.2-1.3,4.6-2.7,5.3-3.2
		c1.4-0.8,3.4-3,2.7-3c-0.2,0-0.4,0.2-0.5,0.4c-0.4,0.9-6.2,3.9-7.5,3.9c-0.3,0-0.7-0.3-0.9-0.7c-0.4-1-0.9-0.5-0.7,0.7
		c0.2,1.1,0,1.4-1.8,2.6c-1.2,0.8-1.8,1.7-1,1.7C442.4,271.4,444.3,270.4,446.5,269.1L446.5,269.1z M292,173c0.5-0.6,0.4-1-0.1-1
		c-0.5,0-1.1,0.9-0.8,1.2C291.4,173.5,291.6,173.5,292,173z M95.8,101.7c-3.4-3.7-6.5-6.4-7-6c-0.4,0.3-0.2,0.9,0.4,0.9
		c0.3,0,0.9,0.5,1.3,1.1c0.8,1.1,5.6,5.3,6.1,5.3C96.8,103,96.4,102.4,95.8,101.7z M309.3,354.1c0-0.5,0.2-0.7,0.6-0.7
		c0.4,0,0.6,0.2,0.5,0.6C310.2,354.9,309.3,355,309.3,354.1z M350.6,340.9c0.1-0.7,1.2-1.5,2.6-1.8c0.9-0.2,1-0.1,1,0.5
		c0,1.1-1.1,1.9-2.5,1.9C350.7,341.5,350.5,341.4,350.6,340.9L350.6,340.9z M359.3,336.5c0-0.4,0.3-0.9,0.6-1.1
		c0.8-0.5,1.9,0.1,1.9,1.1c0,0.6-0.2,0.7-1.3,0.7C359.5,337.2,359.3,337.1,359.3,336.5L359.3,336.5z M318.2,178.5
		c-0.2-0.5,0.1-1.1,0.6-1.1c0.2,0,0.4,0.3,0.3,0.6C319,178.7,318.5,179,318.2,178.5L318.2,178.5z"/>
</g>
</svg>
